<svg xmlns="http://www.w3.org/2000/svg" width="171.727" height="52.097" viewBox="0 0 171.727 52.097">
  <g id="Meena_SVG_AR_Logo_Placeholder" data-name="Meena_SVG_AR Logo_Placeholder" transform="translate(-457.46 -387.549)">
    <g id="Group_89961" data-name="Group 89961" transform="translate(552.492 387.549)">
      <path id="Path_101705" data-name="Path 101705" d="M1273.57,413.555c1.008,1.845,2.019,4.087,3.663,5.45a10.741,10.741,0,0,0,6.574,2.269c6.38,0,10.028-2.448,10.028-7.342a16.857,16.857,0,0,0-10.612-14.531c-7.28-2.964,1.22-11.751,1.246-11.751,4.377,0,8.206,3.028,11.025,6.1,6.494,7.068,10.367,17.608,10.367,23.6,0,8.327-8.319,12.537-15.257,12.537a14.136,14.136,0,0,1-10.561-4.106C1277.228,422.961,1275.232,418.788,1273.57,413.555Z" transform="translate(-1229.166 -387.633)" fill="#d6d1ed"/>
      <path id="Path_101706" data-name="Path 101706" d="M1144.311,424.056c3.41,9.494,5.373,14.5,6.453,19.189.68,2.956-2.816,13.005-4.642,9.394-.565-1.119-4.318,1.8-5.307-.084-3.651-6.947-7.875-28-13.209-28.046-.19,0,9.8-12.573,16.7-.453Z" transform="translate(-1108.14 -413.447)" fill="#d6d1ed"/>
      <path id="Path_101707" data-name="Path 101707" d="M1019.582,430.26c9.013,0,10.663-10.535,13.861-20.161,2.631-7.917,5.292-15.261,9.935-15.261a7.248,7.248,0,0,1,5.374,2.489,9.191,9.191,0,0,1,1.1,1.328c-2.616-6.58-7.316-10.521-13.245-10.506-10.014,0-13.5,11.522-16.566,21.64-2.881,9.493-6.192,14.2-6.354,16.207-.142,1.746,2.517,4.265,5.9,4.265Z" transform="translate(-1013.678 -388.047)" fill="#8450ff"/>
      <path id="Path_101708" data-name="Path 101708" d="M1239.6,396.707a9.174,9.174,0,0,0-5.77-2.467c-2.281,0-4.883,1.232-7.1,5.435-.108.2-.212.408-.311.617a80.163,80.163,0,0,0-3.5,9.228c-1.129,3.4-2.066,6.913-3.2,10.036-.3.81-.6,1.594-.931,2.342-1.991,4.536-4.726,7.782-9.729,7.782-3.378,0-6.036-2.517-5.9-4.263.162-2,3.472-6.713,6.354-16.206,2.913-9.6,6.511-21.707,16.482-21.663,4.453.02,9.479,2.494,13.6,9.161Z" transform="translate(-1170.777 -387.549)" fill="#8450ff"/>
    </g>
    <g id="Group_89962" data-name="Group 89962" transform="translate(457.46 394.354)">
      <path id="Path_101709" data-name="Path 101709" d="M530.57,436.586A13.1,13.1,0,0,0,519.8,457.148h-8.811a4.446,4.446,0,0,1-4.447-4.444h0V437.789H500.9V452.7a4.445,4.445,0,0,1-4.447,4.444h-7.62a4.446,4.446,0,0,1-4.447-4.444h0V437.789h-5.64v14.945a4.445,4.445,0,0,1-4.446,4.415H463.768V427.38H457.46v35.406h16.848a10.052,10.052,0,0,0,7.265-3.1,10.052,10.052,0,0,0,7.265,3.1l0,0h7.625a10.052,10.052,0,0,0,7.265-3.1,10.052,10.052,0,0,0,7.265,3.1l0,0h19.578a13.1,13.1,0,0,0,0-26.2Zm0,20.562a7.461,7.461,0,1,1,7.461-7.461A7.462,7.462,0,0,1,530.57,457.148Z" transform="translate(-457.46 -427.38)" fill="#d6d1ed"/>
      <path id="Path_101710" data-name="Path 101710" d="M580.849,436.989a3.649,3.649,0,1,0-3.649-3.649A3.65,3.65,0,0,0,580.849,436.989Z" transform="translate(-556.742 -429.295)" fill="#d6d1ed"/>
      <circle id="Ellipse_14016" data-name="Ellipse 14016" cx="3.649" cy="3.649" r="3.649" transform="translate(47.612 37.993)" fill="#d6d1ed"/>
      <circle id="Ellipse_14017" data-name="Ellipse 14017" cx="3.649" cy="3.649" r="3.649" transform="translate(38.969 37.993)" fill="#d6d1ed"/>
    </g>
  </g>
</svg>
