<svg xmlns="http://www.w3.org/2000/svg" width="204.077" height="61.911" viewBox="0 0 204.077 61.911">
  <g id="Meena_SVG_AR_Logo_Placeholder" data-name="Meena_SVG_AR Logo_Placeholder" transform="translate(-457.46 -387.549)">
    <g id="Group_89961" data-name="Group 89961" transform="translate(570.394 387.549)">
      <path id="Path_101705" data-name="Path 101705" d="M1273.57,418.435c1.2,2.193,2.4,4.857,4.353,6.477a12.764,12.764,0,0,0,7.813,2.7c7.582,0,11.917-2.91,11.917-8.725a20.032,20.032,0,0,0-12.611-17.268c-8.651-3.523,1.45-13.965,1.48-13.965,5.2,0,9.752,3.6,13.1,7.245,7.717,8.4,12.32,20.925,12.32,28.044,0,9.9-9.886,14.9-18.131,14.9-5.375,0-9.4-1.724-12.55-4.879C1277.917,429.612,1275.545,424.654,1273.57,418.435Z" transform="translate(-1220.801 -387.63)" fill="#d6d1ed"/>
      <path id="Path_101706" data-name="Path 101706" d="M1147.458,425.049c4.053,11.283,6.385,17.23,7.669,22.8.808,3.513-3.346,15.455-5.517,11.163-.672-1.33-5.131,2.134-6.307-.1-4.339-8.256-9.358-33.276-15.7-33.329-.226,0,11.646-14.942,19.849-.538Z" transform="translate(-1104.473 -412.442)" fill="#d6d1ed"/>
      <path id="Path_101707" data-name="Path 101707" d="M1020.694,438.193c10.711,0,12.672-12.519,16.473-23.959,3.127-9.409,6.288-18.136,11.807-18.136a8.614,8.614,0,0,1,6.386,2.958,10.917,10.917,0,0,1,1.3,1.578c-3.109-7.819-8.694-12.5-15.74-12.485-11.9,0-16.038,13.693-19.687,25.717-3.423,11.281-7.358,16.881-7.551,19.26-.168,2.075,2.991,5.068,7.007,5.068Z" transform="translate(-1013.678 -388.028)" fill="#8450ff"/>
      <path id="Path_101708" data-name="Path 101708" d="M1246.462,398.432a10.9,10.9,0,0,0-6.857-2.932c-2.711,0-5.8,1.464-8.436,6.459-.128.242-.252.485-.369.733a95.274,95.274,0,0,0-4.165,10.966c-1.342,4.04-2.455,8.215-3.8,11.927-.351.962-.715,1.894-1.107,2.784-2.366,5.391-5.616,9.248-11.561,9.248-4.014,0-7.173-2.991-7.007-5.066.193-2.38,4.126-7.977,7.551-19.258,3.462-11.411,7.738-25.8,19.587-25.743,5.291.024,11.265,2.964,16.164,10.887Z" transform="translate(-1164.679 -387.549)" fill="#8450ff"/>
    </g>
    <g id="Group_89962" data-name="Group 89962" transform="translate(457.46 395.636)">
      <path id="Path_101709" data-name="Path 101709" d="M544.343,438.32a15.567,15.567,0,0,0-12.8,24.436H521.076a5.283,5.283,0,0,1-5.285-5.281h0V439.749h-6.7v17.725a5.282,5.282,0,0,1-5.285,5.281h-9.056a5.283,5.283,0,0,1-5.285-5.281h0V439.749h-6.7v17.76a5.282,5.282,0,0,1-5.283,5.246H464.956V427.38h-7.5v42.076h20.022a11.945,11.945,0,0,0,8.633-3.679,11.945,11.945,0,0,0,8.633,3.679l0,0h9.062a11.945,11.945,0,0,0,8.633-3.679,11.945,11.945,0,0,0,8.633,3.679l0,0h23.266a15.569,15.569,0,0,0,0-31.138Zm0,24.436a8.867,8.867,0,1,1,8.867-8.867A8.868,8.868,0,0,1,544.343,462.756Z" transform="translate(-457.46 -427.38)" fill="#d6d1ed"/>
      <path id="Path_101710" data-name="Path 101710" d="M581.537,438.364a4.337,4.337,0,1,0-4.337-4.337A4.337,4.337,0,0,0,581.537,438.364Z" transform="translate(-552.888 -429.221)" fill="#d6d1ed"/>
      <circle id="Ellipse_14016" data-name="Ellipse 14016" cx="4.337" cy="4.337" r="4.337" transform="translate(56.581 45.15)" fill="#d6d1ed"/>
      <circle id="Ellipse_14017" data-name="Ellipse 14017" cx="4.337" cy="4.337" r="4.337" transform="translate(46.309 45.15)" fill="#d6d1ed"/>
    </g>
  </g>
</svg>
