<svg xmlns="http://www.w3.org/2000/svg" xmlns:xlink="http://www.w3.org/1999/xlink" width="700.001" height="513.362" viewBox="0 0 700.001 513.362">
  <defs>
    <clipPath id="clip-path">
      <rect id="Rectangle_69536" data-name="Rectangle 69536" width="93.106" height="38.368" fill="none"/>
    </clipPath>
    <clipPath id="clip-path-2">
      <rect id="Rectangle_69536-2" data-name="Rectangle 69536" width="93.107" height="38.368" fill="none"/>
    </clipPath>
    <clipPath id="clip-path-3">
      <rect id="Rectangle_69536-3" data-name="Rectangle 69536" width="76.958" height="31.713" fill="none"/>
    </clipPath>
    <clipPath id="clip-path-5">
      <path id="path861" d="M0-682.665H64v64H0Z" transform="translate(0 682.665)"/>
    </clipPath>
  </defs>
  <g id="Group_89928" data-name="Group 89928" transform="translate(-980 -2543)">
    <g id="Group_89953" data-name="Group 89953">
      <g id="Group_89951" data-name="Group 89951">
        <path id="Path_101522" data-name="Path 101522" d="M385.81,247.5c4.016-1.137,9.008-.643,13.876-.833,4.3-.169,8.725-.144,13.1.034,4.975.2,10,.144,14.995.023,5.351-.128,10.676.361,16.023.152,4.447-.175,8.91-.258,13.357-.125a102.049,102.049,0,0,1,12.318.965c3.43.522,6.871.289,10.3.633,4.512.453,9.262.244,13.254,2.195,2.664,1.3,4.239,3.94,5.014,7.034a36.506,36.506,0,0,1,.625,11.865c-.489,5.95-1.865,11.958-7.6,16.427-2.365,1.843-4.782,1.76-7.171,2.439-7.682,2.178-15.7,2.043-23.625,2.622-6.031.439-12.1.517-18.072.467-7.343-.061-14.735-.127-22.1-.477-4.325-.206-8.742-.528-13.164.155a35.89,35.89,0,0,1-8.746-.239c-2.689-.259-5.357.371-7.954.134-4.875-.441-9.8-.142-14.643-.993-1.734-.3-3.846-.736-5.278-.369-3.831.983-6.9-1.124-10.369-1.415-2.481-.21-4.222-2.4-4.868-4.421-1.844-5.767-4.3-11.485-2.936-17.77a12.192,12.192,0,0,0-.324-3.682c-.487-3.625,1.425-6.183,4.518-8.059,3.554-2.157,7.892-2.573,11.745-4.021,4.8-1.8,10.088-.871,14.814-2.709.6-.233,1.4-.031,2.911-.031" transform="translate(1178.039 2597.422)" fill="#f0f0f0"/>
        <path id="Path_101545" data-name="Path 101545" d="M386.523,247.5c4.1-1.137,9.2-.643,14.167-.833,4.394-.17,8.91-.144,13.376.034,5.079.2,10.214.142,15.308.023,5.465-.13,10.9.361,16.358.152,4.54-.175,9.1-.258,13.639-.127a106.29,106.29,0,0,1,12.574.965c3.5.524,7.017.291,10.52.635,4.608.452,9.455.244,13.531,2.2,2.719,1.3,4.328,3.94,5.121,7.034a35.762,35.762,0,0,1,.638,11.863c-.5,5.95-1.9,11.958-7.762,16.428-2.417,1.843-4.882,1.76-7.323,2.437-7.843,2.179-16.023,2.045-24.12,2.623-6.155.439-12.352.517-18.449.467-7.5-.061-15.046-.127-22.566-.478-4.415-.206-8.925-.527-13.439.155a37.407,37.407,0,0,1-8.93-.238c-2.746-.261-5.469.371-8.121.134-4.974-.441-10-.144-14.947-.993-1.773-.3-3.927-.736-5.391-.369-3.909.983-7.043-1.124-10.586-1.416-2.533-.208-4.308-2.4-4.97-4.42-1.88-5.769-4.391-11.485-3-17.77a11.95,11.95,0,0,0-.331-3.682c-.5-3.625,1.457-6.183,4.613-8.059,3.629-2.157,8.057-2.573,11.993-4.021,4.9-1.806,10.3-.871,15.122-2.709.614-.233,1.435-.031,2.971-.031m92.133,38.567a2.1,2.1,0,0,0,1.983.17c2.559-1.355,5.559-1.577,8.3-2.453a9.247,9.247,0,0,0,6.506-6.285,54.167,54.167,0,0,0,2.456-12.607c.134-2.054.89-4.195.184-6.305a7.128,7.128,0,0,0-3.532-4.381c-2.143-.891-4.8-1.057-7.209-1.363-1.854-.233-3.848-1.108-5.691-.482-2.4.816-4.635-.125-6.712-.522a38.6,38.6,0,0,0-9.335-.9c-3.666.211-7.255-.278-10.869-.352-4.339-.088-8.7.4-13.032-.183-2.652-.353-5.356.1-7.974-.047-3.283-.18-6.541.536-9.793-.034-2.549-.447-5.119.367-7.567.159-3.482-.294-6.951-.2-10.417-.383a123.994,123.994,0,0,0-15.2.5c-5.123.361-10.266.666-15.311,1.431-1.365.206-2.928-.091-4.069.489-3.081,1.565-6.657,1.552-9.874,2.867-4.409,1.8-5.467,2.39-5.785,7.195a71.23,71.23,0,0,0,1.429,17.809c.359,1.909,4.578,5.223,6.841,5.37,3.813.247,7.626.458,11.441.663,6.5.349,13.005.9,19.509.94,3.8.022,7.621-.424,11.449-.291,2.158.077,4.332.3,6.475.169a90.8,90.8,0,0,1,11.3-.158c2.636.163,5.288.081,7.93.194,3.188.134,6.357.3,9.567.214,1.779-.045,3.692.567,5.461.02,2.752-.852,5.711-.294,8.277-.158,3.408.181,6.9-1.18,10.242.2.191.078.535-.078.78-.178,3.971-1.643,8.279-.528,12.245-1.309" transform="translate(1178.039 2597.423)" fill="#222f3f"/>
      </g>
      <g id="Group_89950" data-name="Group 89950">
        <path id="Path_101521" data-name="Path 101521" d="M278.584,354.2c3.722,0,7.611-.012,11.5,0,3.65.016,7.3.067,10.95.086,4.432.023,8.866.014,13.3.047,6.043.045,12.091.308,18.128.124,6.487-.2,12.856,1.165,19.333,1.141a46.281,46.281,0,0,1,11.58,1.377,9.252,9.252,0,0,1,5.586,4.373c2.7,4.315,1.588,8.675,1.918,13.056a26.751,26.751,0,0,1-.217,4.873,21.223,21.223,0,0,1-6.01,13.365c-1.824,1.843-3.749,1.848-5.735,2.475-5.8,1.832-11.769,2.153-17.773,2.564-4.249.291-8.5.5-12.748.536-3.805.036-7.615.152-11.436-.006-7.295-.3-14.638-.727-21.891-.449-6.133.236-12.252-.228-18.39.094a52.68,52.68,0,0,1-12.767-.885,11.994,11.994,0,0,0-5.076-.269c-3.228.833-5.814-1.3-8.8-1.556-1.627-.136-2.642-1.948-3.463-3.475-2.279-4.237-2.591-9.021-3.321-13.642-.491-3.1.067-6.329-.025-9.516-.092-3.15,2.031-5.362,4.817-7.115,3.713-2.334,7.94-2.888,11.871-4.4,2.78-1.068,6.03-.747,8.989-1.424,3.155-.722,6.368-.436,9.679-1.377" transform="translate(1116.798 2658.068)" fill="#f5ebe8"/>
        <path id="Path_101547" data-name="Path 101547" d="M278.584,354.2c3.722,0,7.611-.012,11.5,0,3.65.016,7.3.067,10.95.086,4.432.023,8.866.014,13.3.047,6.043.045,12.091.308,18.126.124,6.488-.2,12.857,1.165,19.335,1.141a46.281,46.281,0,0,1,11.58,1.377,9.252,9.252,0,0,1,5.586,4.373c2.7,4.315,1.588,8.675,1.918,13.056a26.751,26.751,0,0,1-.217,4.873,21.223,21.223,0,0,1-6.01,13.365c-1.824,1.843-3.749,1.848-5.735,2.475-5.8,1.832-11.769,2.153-17.773,2.564-4.249.291-8.5.5-12.748.536-3.805.036-7.615.152-11.436-.006-7.295-.3-14.638-.727-21.891-.449-6.133.236-12.252-.228-18.39.094a52.674,52.674,0,0,1-12.767-.885,11.994,11.994,0,0,0-5.076-.269c-3.228.833-5.814-1.3-8.8-1.556-1.627-.136-2.642-1.948-3.463-3.475-2.281-4.237-2.591-9.021-3.321-13.642-.491-3.1.067-6.329-.025-9.516-.092-3.15,2.031-5.362,4.817-7.115,3.713-2.334,7.94-2.888,11.871-4.4,2.78-1.068,6.03-.747,8.989-1.424,3.155-.722,6.368-.436,9.679-1.377m-17.3,5.869c-.661-.125-1-.466-1.4-.181-2.5,1.807-5.639,1.621-8.366,2.935-3.763,1.81-4.685,2.195-5,7.3a81.179,81.179,0,0,0,1.273,17.577c.116.744-.028,2.054.68,2.409,2.254,1.13,3.985,3.318,7.023,3a19.433,19.433,0,0,1,4.412.217c3.235.449,6.53.444,9.8.615,2.908.152,5.816.338,8.727.417a33.7,33.7,0,0,0,6.721-.111c2.578-.455,5.1.119,7.658,0s5.15-.277,7.729-.158c2.931.136,5.863.222,8.8.324,2.73.094,5.5.507,8.17.355,3.272-.186,6.641.682,9.845-.644a.533.533,0,0,1,.452.063c1.829,1.354,3.949.369,5.719.236,3.23-.245,6.482-.073,9.751-.56,5.255-.782,10.7-.5,15.767-2.351.986-.36,2.281-.2,2.963-.943a18.033,18.033,0,0,0,4.923-10.243c.477-4.116.783-8.253,1.174-12.381.17-1.793-1.763-6.305-3.321-6.635-1.632-.345-3.3-.539-4.953-.944a12.842,12.842,0,0,0-5.975-.441c-2.079.539-3.951-.2-5.639-.588a28.786,28.786,0,0,0-7.726-.9c-3.2.158-6.335-.274-9.491-.327-3.7-.061-7.425.433-11.116-.211-2.337-.408-4.692.111-7.016-.042-2.722-.18-5.428.444-8.137-.028-2.167-.377-4.378.389-6.441.158-2.814-.314-5.627-.241-8.43-.469-5.825-.477-11.632.442-17.446.8-2.217.134-4.473.294-6.635.538a14.915,14.915,0,0,0-4.489,1.213" transform="translate(1116.798 2658.068)" fill="#222f3f"/>
      </g>
      <g id="Group_89949" data-name="Group 89949">
        <path id="Path_101520" data-name="Path 101520" d="M119.25,377.617c-.661-3.535-.264-7.293-.209-11.036a9.774,9.774,0,0,1,1.24-5.533c1.005-1.546,1.735-3.03,3.341-4.052a12.266,12.266,0,0,1,6.349-1.718c2.214-.086,4.381-.6,6.593-.622,3.957-.044,7.9-1.032,11.826-1.108,5.669-.109,11.353.252,17.025-.031,3.962-.2,7.925-.039,11.88-.1,3.253-.05,6.543-.12,9.817.048,4.778.246,9.637-.161,14.3.957,3.527.844,7.173.779,10.647,2.469,2.739,1.332,5.7,1.914,8.383,3.677a7.839,7.839,0,0,1,3.905,6.995c-.136,2.98.231,5.936-.05,8.885a57.144,57.144,0,0,1-2.225,12.578,7.346,7.346,0,0,1-4.886,5.076,30.839,30.839,0,0,1-7.8,1.2c-2.3.167-4.651.525-6.993.547-2.237.022-4.568.486-6.818.3-4.5-.372-8.969.6-13.5-.034-2.752-.385-5.675.269-8.5.311-3.305.048-6.632.013-9.929.178-4.968.252-9.931.047-14.874-.174-4.059-.183-8.145-.61-12.209-1.03-3.5-.363-6.7-2.087-10.176-2.325-1.47-.1-2.206-2.157-3.347-3.221a7.619,7.619,0,0,1-1.657-2.742c-1.09-2.938-2.329-5.9-2.134-9.493" transform="translate(1046.838 2657.597)" fill="#d6d1ed"/>
        <path id="Path_101546" data-name="Path 101546" d="M119.25,377.618c-.661-3.536-.264-7.295-.209-11.038a9.78,9.78,0,0,1,1.24-5.533c1.005-1.545,1.735-3.03,3.341-4.051a12.249,12.249,0,0,1,6.349-1.72c2.214-.084,4.381-.6,6.593-.621,3.957-.044,7.9-1.032,11.826-1.108,5.667-.111,11.353.25,17.025-.033,3.962-.2,7.925-.038,11.88-.1,3.252-.052,6.543-.12,9.817.047,4.778.247,9.637-.159,14.3.957,3.529.846,7.174.78,10.648,2.47,2.737,1.33,5.7,1.914,8.383,3.677a7.84,7.84,0,0,1,3.905,6.993c-.136,2.981.231,5.938-.05,8.886a57.206,57.206,0,0,1-2.225,12.576,7.345,7.345,0,0,1-4.886,5.078,30.84,30.84,0,0,1-7.8,1.2c-2.3.169-4.651.525-6.993.549-2.237.02-4.568.486-6.818.3-4.5-.372-8.969.6-13.5-.033-2.752-.386-5.677.269-8.5.31-3.305.048-6.632.014-9.929.18-4.968.25-9.931.047-14.874-.175-4.059-.181-8.145-.608-12.209-1.029-3.5-.364-6.7-2.087-10.176-2.326-1.47-.1-2.206-2.156-3.347-3.221a7.6,7.6,0,0,1-1.657-2.741c-1.09-2.939-2.329-5.9-2.134-9.493m102.387-6.447a12.232,12.232,0,0,0-1.143-7.138c-1.307-2.262-3.737-2.809-5.527-3.344a42.2,42.2,0,0,0-6.562-1.885c-1.912-.247-3.982-1.143-5.878-1.174-4.821-.081-9.568-1.36-14.408-1.049-1.473.094-3.053.9-4.506-.255-1.624,1.859-3.879.879-5.384.646-2.351-.364-4.648.234-6.962,0-1.607-.163-3.649.209-5.25-.011-3.41-.471-6.7.688-10.1.219-3.314-.457-6.73.347-10.1.311a30.707,30.707,0,0,0-5.33.253c-2.816.482-5.558,1.431-8.467,1.274-2.14-.114-4.226.711-6.336,1.123-1.968.383-4.481,3.308-4.495,5.763a51.711,51.711,0,0,0,.369,5.941c.394,3.55.693,7.143,1.393,10.609.643,3.188,1.975,5.86,4.923,6.935a9.733,9.733,0,0,1,2.032.668,9.284,9.284,0,0,0,4.737,1.724c2.062.023,4.124.463,6.149.269,1.695-.164,3.061,1.59,4.739.827a2.417,2.417,0,0,1,2.187-.072c1.834.79,3.8-.134,5.772.28.926.194,2.234-.242,3.419.034,1.87.436,3.788-.427,5.6-.128,2.447.4,4.8-.327,7.218-.163,2.34.159,4.7-.3,7.057-.308,2.919-.014,5.853.425,8.752.172,3.661-.32,7.3.2,10.969-.033a58.156,58.156,0,0,1,6.846-.386,60.111,60.111,0,0,0,8.793-.485c2.547-.241,5.286.1,7.1-2.927.239-.4.9.142,1.051-.924a106.554,106.554,0,0,0,1.343-16.766" transform="translate(1046.839 2657.597)" fill="#222f3f"/>
      </g>
      <g id="Group_89948" data-name="Group 89948">
        <path id="Path_101519" data-name="Path 101519" d="M140.539,260.378a46.933,46.933,0,0,1-2.447,17.641c-1.27,3.6-2.551,7.542-7.839,8.791a84.7,84.7,0,0,1-13.658,1.7c-6.765.482-13.559.632-20.362.646-4.3.008-8.657.247-12.945.058-5.137-.227-10.309.03-15.434-.822-2.376-.394-4.954.932-7.284-.827-.247-.186-1.151,1.526-2.639,1.179a15.43,15.43,0,0,0-6.05-.51c-2.96.664-5.789-.868-8.625.235-.675.263-2.009.926-2.386-.7-.091-.394-.469-.33-.8-.166-3.557,1.765-7.17-.466-10.772.145-2.9.491-5.6-2.223-8.646-.672-.109.055-.431-.028-.442-.088-.558-2.784-2.481-1.108-3.858-1.112-3.307-.009-7.981-3.826-9.634-6.548-2.939-4.845-1.9-10.04-2.564-15.11-.338-2.584.75-4.948.188-7.462-.177-.8.6-1.776.879-2.692,1.127-3.768,5.827-5.9,9.274-6.374,4.767-.652,9.577-.7,14.33-1.495a96.122,96.122,0,0,1,15-1.631c5.323-.038,10.661-.178,15.97-.053,4.856.113,9.759.231,14.577.127,6.666-.145,13.358-.253,20-.109,6.207.136,12.568-.18,18.631,1.312,2.476.608,4.911.4,7.34.791a23.859,23.859,0,0,1,4.413,1.179c4.778,1.778,10.054,2.453,13.647,6.988a10.384,10.384,0,0,1,2.142,5.583" transform="translate(982.17 2596.243)" fill="#ebf0f7"/>
        <path id="Path_101544" data-name="Path 101544" d="M140.541,260.378a46.935,46.935,0,0,1-2.448,17.641c-1.27,3.6-2.55,7.542-7.837,8.791a84.689,84.689,0,0,1-13.659,1.7c-6.763.483-13.558.632-20.36.646-4.3.008-8.657.247-12.945.058-5.139-.227-10.311.03-15.434-.821-2.376-.4-4.956.93-7.285-.829-.245-.186-1.151,1.526-2.637,1.179a15.438,15.438,0,0,0-6.052-.51c-2.96.664-5.789-.868-8.624.234-.677.263-2.011.926-2.386-.7-.092-.394-.469-.33-.8-.166-3.558,1.767-7.17-.466-10.772.145-2.9.491-5.606-2.223-8.647-.672-.108.056-.43-.028-.441-.087-.558-2.784-2.483-1.108-3.86-1.112-3.307-.009-7.981-3.824-9.632-6.548-2.941-4.845-1.9-10.04-2.566-15.11-.336-2.584.75-4.948.189-7.462-.178-.8.6-1.776.877-2.692,1.129-3.768,5.828-5.9,9.276-6.374,4.765-.652,9.577-.7,14.33-1.495a95.909,95.909,0,0,1,14.995-1.629c5.323-.039,10.662-.18,15.97-.055,4.857.113,9.759.231,14.579.127,6.666-.144,13.358-.253,20-.109,6.205.136,12.568-.18,18.631,1.312,2.475.608,4.911.4,7.339.791a23.948,23.948,0,0,1,4.413,1.179c4.779,1.778,10.056,2.453,13.648,6.988a10.384,10.384,0,0,1,2.142,5.583m-16.91,23.512c1.71.555,3.136-.122,4.615-.214,4.362-.274,5.5-1.415,6.674-5.624a60.328,60.328,0,0,0,1.273-8.172,34.2,34.2,0,0,0-.056-10.95,6.865,6.865,0,0,0-2.723-4.262c-2.791-1.692-6.161-2.268-9.247-3.4-3.414-1.257-6.949-1.421-10.456-1.843-6.7-.805-13.373-2.154-20.185-1.155a2.729,2.729,0,0,1-.963-.113,18.306,18.306,0,0,0-6.244-.36c-3.394.438-6.83-.349-10.164.616a4.014,4.014,0,0,1-2.128-.2c-1.2-.336-2.911-.719-3.737-.4C67.2,249,64.1,247.87,61,248.3a98.047,98.047,0,0,1-13.12.452c-5.12.012-10.139.79-15.2,1.271a102.053,102.053,0,0,1-11.034.285,28.216,28.216,0,0,0-8.636,1.28c-1.718.546-4.188,1.288-4.679,3.669a14.949,14.949,0,0,0-.381,5.764c.593,3.444.344,7.018.746,10.5.2,1.778-.761,4.14.58,5.192,1.559,1.221,2.672,2.878,4.551,3.93,1.69.946,4.2-.261,5.14,2.059,1.466-1.445,2.8.03,4.179.216a96.083,96.083,0,0,0,14.729,1.132c3.941-.078,7.848,1.066,11.758.314,3.455-.666,6.782.644,10.3.216,2.991-.364,6.189.191,9.316.084a72.392,72.392,0,0,1,11.41.571c4.576.577,9.052.086,13.561.192,3.515.083,7.088-.147,10.59-.067,3.766.087,7.412-.654,11.136-.68a24.57,24.57,0,0,0,7.686-.8" transform="translate(982.17 2596.243)" fill="#222f3f"/>
      </g>
      <g id="Group_89853" data-name="Group 89853" transform="translate(979.866 2543)">
        <g id="Group_89943" data-name="Group 89943">
          <path id="Path_101551" data-name="Path 101551" d="M418.836,296.292c-.3.686-.563,1.09-1.812.913a17.04,17.04,0,0,0-6.663.167c-1.282.328-2.784-.342-4.166-.252a44.336,44.336,0,0,1-5.778-.385,21.75,21.75,0,0,1-2.884-.386A100.7,100.7,0,0,1,386.013,293c-2.819-.916-5.77-1.487-8.466-2.8-1.107-.538-2-1.352-3.189-1.868a51.282,51.282,0,0,1-10.719-5.708,65.76,65.76,0,0,0-7.731-5.5c-2.439-1.33-3.927-3.663-6.091-5.234-.936-.679-1.688-1.679-2.92-1.95a1.089,1.089,0,0,1-.719-.508c-.682-1.92-2.52-2.769-3.8-4.126a47.947,47.947,0,0,1-4-4.451c-1.512-2.064-3.328-3.905-4.839-5.972a81.436,81.436,0,0,1-5.054-7.661,66.062,66.062,0,0,0-3.55-5.628,30.972,30.972,0,0,1-3.2-6.577c-1.685-4.21-3.257-8.467-4.806-12.729-.908-2.5-1.151-5.19-1.864-7.739a49.582,49.582,0,0,1-1.634-11.12,72.96,72.96,0,0,1,.5-12.257c.37-3.036,1.682-3.461,4.646-2.642,3.028.838,5.878,2.147,8.932,2.925,2.722.693,5.189,2.218,7.972,2.9,1.121.277,1.41-.036,1.635-.921q.612-2.42,1.232-4.837a53.127,53.127,0,0,1,5.372-14.166c2.611-4.42,5.153-8.938,8.569-12.693,2.874-3.157,5.552-6.518,8.28-9.751,3.483-4.129,7.787-6.962,11.983-10.007,3.305-2.4,7.206-3.83,10.919-5.563,2.292-1.068,4.776-1.34,7.067-2.425a13.346,13.346,0,0,1,5.072-1.357,25.981,25.981,0,0,0,4.837-.875,31.2,31.2,0,0,1,6.793-.641,58.808,58.808,0,0,1,8.336.213,117.282,117.282,0,0,1,13.967,2.45c2.8.691,5.308,2.159,8.045,2.864,2.944.76,5.5,2.326,8.122,3.622,3.246,1.607,6.848,2.667,9.61,5.387.8.783,2.589,1.41,3.475,2.225,1.074.987,2.4,1.651,3.361,2.722,2.6,2.9,6.193,4.9,8.386,8,1.932,2.733,4.22,5.272,5.728,8.37,1.21,2.489,3.1,4.645,4.65,6.971.4.607,1.019,1.326.961,1.94-.18,1.9,1.184,3.1,1.842,4.579a78.612,78.612,0,0,1,3.21,8.051c.936,2.955,1.487,6.03,2.209,9.047a42.515,42.515,0,0,1,1.307,9.224c.025,1.688.705,3.311.493,5.062-.427,3.515.017,7.049-.627,10.615-.475,2.634-1.169,5.253-1.6,7.909-.518,3.214-2.086,6.275-3.316,9.355-1.287,3.217-2.691,6.421-3.88,9.643a74.624,74.624,0,0,1-5.731,11.261c-1.488,2.594-3.879,4.731-5.678,7.152-1.116,1.5-2.639,2.7-3.507,4.454-.9,1.818-2.734,2.958-4.165,4.379-1.146,1.138-1.956,2.839-4.066,2.791-.693-.016-.072,1.921-1.526,1.67-.427,1.829-2.073,2.647-3.407,3.41-1.867,1.068-3.266,2.867-5.547,3.363-.719.156-1.41,1.032-2.3,1.377a4.105,4.105,0,0,1-1.842.492c-.683-.072-.954-.217-.857.76.138,1.373-1.379,1.19-1.986,1.169a3.961,3.961,0,0,0-2.337.836c-.575.342-1.166,1.08-1.962.306-.108-.1-.419-.178-.5-.109-2.506,2.223-5.88,1.923-8.782,2.992-1.368.5-2.981.244-4.285,1.171a.883.883,0,0,1-1.163-.26,1.085,1.085,0,0,0-1.782.117c-1.158,1.518-.639-.607-1.268-.422" transform="translate(176.497 -10.923)" fill="#f0f0f0"/>
          <path id="Path_101560" data-name="Path 101560" d="M418.835,296.292c-.3.686-.563,1.09-1.812.913a17.012,17.012,0,0,0-6.663.169c-1.28.327-2.784-.342-4.166-.252a44.567,44.567,0,0,1-5.777-.386,21.7,21.7,0,0,1-2.885-.386A100.515,100.515,0,0,1,386.013,293c-2.82-.916-5.772-1.487-8.466-2.8-1.107-.536-2-1.352-3.191-1.868a51.311,51.311,0,0,1-10.717-5.708,65.716,65.716,0,0,0-7.733-5.5c-2.439-1.33-3.927-3.665-6.091-5.234-.936-.68-1.687-1.681-2.92-1.951a1.08,1.08,0,0,1-.718-.508c-.683-1.92-2.52-2.769-3.8-4.126a48.146,48.146,0,0,1-4-4.449c-1.512-2.065-3.328-3.907-4.837-5.974a81.018,81.018,0,0,1-5.055-7.659,65.823,65.823,0,0,0-3.55-5.628,31.045,31.045,0,0,1-3.2-6.577c-1.685-4.21-3.257-8.467-4.8-12.731-.91-2.5-1.152-5.19-1.865-7.739a49.669,49.669,0,0,1-1.634-11.12,72.806,72.806,0,0,1,.5-12.257c.37-3.036,1.681-3.461,4.645-2.642,3.03.838,5.88,2.148,8.933,2.925,2.72.693,5.189,2.218,7.97,2.9,1.123.275,1.412-.038,1.635-.922q.614-2.42,1.233-4.837a53.175,53.175,0,0,1,5.37-14.166c2.612-4.42,5.153-8.938,8.57-12.693,2.872-3.157,5.552-6.518,8.28-9.751,3.482-4.129,7.786-6.962,11.983-10.007,3.305-2.4,7.206-3.83,10.919-5.561,2.29-1.069,4.775-1.341,7.067-2.426a13.338,13.338,0,0,1,5.072-1.357,25.735,25.735,0,0,0,4.836-.876,31.116,31.116,0,0,1,6.793-.639,58.6,58.6,0,0,1,8.338.211,117.709,117.709,0,0,1,13.967,2.45c2.8.691,5.306,2.159,8.044,2.866,2.945.758,5.506,2.325,8.122,3.621,3.246,1.607,6.848,2.667,9.612,5.387.8.785,2.589,1.41,3.475,2.225,1.074.988,2.4,1.653,3.361,2.722,2.6,2.9,6.193,4.9,8.386,8,1.932,2.734,4.22,5.272,5.727,8.37,1.21,2.489,3.1,4.646,4.65,6.971.4.607,1.019,1.327.961,1.94-.178,1.9,1.184,3.1,1.842,4.581a77.739,77.739,0,0,1,3.21,8.05c.938,2.955,1.488,6.032,2.211,9.047a42.519,42.519,0,0,1,1.305,9.224c.027,1.688.707,3.311.494,5.062-.428,3.514.016,7.049-.629,10.617-.475,2.633-1.169,5.253-1.6,7.908-.517,3.214-2.084,6.275-3.316,9.355-1.287,3.217-2.691,6.421-3.88,9.643a74.563,74.563,0,0,1-5.73,11.263c-1.49,2.592-3.88,4.729-5.68,7.153-1.115,1.5-2.639,2.694-3.505,4.453-.9,1.82-2.736,2.958-4.165,4.379-1.147,1.138-1.957,2.839-4.068,2.791-.691-.016-.072,1.921-1.524,1.67-.428,1.829-2.075,2.647-3.407,3.41-1.867,1.069-3.266,2.867-5.549,3.364-.719.156-1.409,1.03-2.3,1.377a4.1,4.1,0,0,1-1.84.491c-.685-.072-.955-.217-.858.761.138,1.371-1.379,1.188-1.984,1.168a3.966,3.966,0,0,0-2.339.836c-.575.342-1.165,1.08-1.961.306-.108-.1-.421-.178-.5-.109-2.5,2.223-5.878,1.925-8.782,2.992-1.368.505-2.981.244-4.284,1.171a.88.88,0,0,1-1.163-.26,1.085,1.085,0,0,0-1.782.117c-1.158,1.518-.641-.607-1.269-.422M317.26,191.94c-.367.6.1,1.2-.013,1.818a41.011,41.011,0,0,0,.43,16.25c.727,3.391,1.118,6.943,2.437,10.1,2.145,5.122,3.615,10.547,6.605,15.313,2.122,3.38,3.419,7.214,5.663,10.531,1.122,1.66,2.4,3.228,3.385,4.967a49.362,49.362,0,0,0,3.636,4.8c1.287,1.746,3.737,2.611,3.944,5.173.022.26.184.319.491.364,2.3.349,3.116,2.711,4.872,3.9,1.173.794,1.871,2.775,3.594,3.4,1.523.555,1.646,2.545,3.325,3,1.576.43,2.095,2.268,3.443,3.041a64.551,64.551,0,0,1,6.74,4.351c.7.527,1.135,1.668,2.039,1.651,2.451-.047,4.141,1.606,6.013,2.669a67.046,67.046,0,0,0,7.126,3.3,79.089,79.089,0,0,0,7.947,2.551,91.956,91.956,0,0,0,8.983,2.53,39.081,39.081,0,0,0,7.4.815c3.321-.008,6.619,0,9.948-.117a89.52,89.52,0,0,0,10.209-1.216c4.282-.649,8.349-2.287,12.42-3.868,3.246-1.259,6.157-3.049,9.224-4.589a9.742,9.742,0,0,0,1.853-1.008c2.118-1.74,4.331-3.361,6.333-5.251a13.344,13.344,0,0,1,2.264-2.048,9.162,9.162,0,0,0,2.534-2.162c.6-.774.727-2.042,2.175-1.284-.1-1.122.641-1.959,1.008-2.92a.9.9,0,0,1,.392-.388c3.016-1.79,4.493-4.912,6.563-7.526,1.1-1.387,2.578-2.42,3.336-4.14.508-1.154,1.79-2.111,1.7-3.385A2.8,2.8,0,0,1,476.4,250.2c.2-.211.63-.12.7-.635.256-1.907,1.948-3.339,1.823-5.4a1.244,1.244,0,0,1,.324-.829c1.721-1.812,2.151-4.21,2.5-6.471a10.485,10.485,0,0,1,.622-3.16,15.3,15.3,0,0,0,1.274-4.038,62.547,62.547,0,0,1,1.623-7.018c.6-1.8-.711-4.068,1.316-5.4a3.579,3.579,0,0,1-.389-.585c-.144-.341-.444-.865-.316-1.03,1.115-1.44.539-3.1.5-4.595a109.932,109.932,0,0,0-.868-12c-.477-3.586-1.926-6.737-2.953-10.018s-2.437-6.568-3.655-9.834c-2-5.353-5.358-9.8-8.5-14.388a63.9,63.9,0,0,0-6.963-7.842c-1.335-1.39-2.975-2.481-4.376-3.813a61.9,61.9,0,0,0-8.2-6.469,46.836,46.836,0,0,0-8.244-4.485c-3.41-1.4-6.78-2.892-10.176-4.331-2.72-1.154-5.66-1.237-8.522-1.5-5-.463-9.959-1.835-15.042-.863a.632.632,0,0,1-.364.008c-2.086-1.063-4.3.467-6.4-.319-.261-.1-.406.084-.561.325-.23.356-4.94,1.71-5.084,1.459-.475-.829-.93-.486-1.31-.034-1.581,1.875-4.509.086-5.994,2.231-.139.2-.563.208-.855.3-1.022.32-2.461-.292-2.911,1.305-.591-.2-.918.688-1.31.494-1.577-.785-2.365.488-3.217,1.263-.392.356-.863.722-1.2.685-1-.114-1.517.527-2.164,1.021a27.514,27.514,0,0,1-2.322,1.7,61.65,61.65,0,0,0-7,4.984c-1.462,1.2-2.5,2.758-4.235,3.8-3.923,2.356-6.074,6.5-8.857,9.99-.436.547-.783,1.166-1.229,1.734a55.12,55.12,0,0,0-5.173,7.385,32.239,32.239,0,0,0-2.62,4.847c-.569,1.635-1.456,3.338-2.2,4.973-1.116,2.445-1.507,5.215-2.331,7.808-.192.607.333,1.427.052,1.484-1.757.356-.711,1.51-.751,2.322-.125,2.575-2.006,4.4-4,3.7-3.239-1.14-6.451-2.365-9.64-3.64a101.487,101.487,0,0,0-9.949-3.385" transform="translate(176.545 -10.632)" fill="#222f3f"/>
        </g>
        <g id="Group_89952" data-name="Group 89952">
          <path id="Path_101550" data-name="Path 101550" d="M265.016,266.755c-3.288,1.051-6.777.184-10.07,1.1-1.893.522-3.752.122-5.639-.047-2.561-.227-5.137-.294-7.709-.375a50.1,50.1,0,0,1-13.75-2.111c-3.588-1.14-6.884-2.925-10.409-4.2a65.542,65.542,0,0,1-9.076-4.427c-2.359-1.3-4.585-2.811-6.837-4.234a38.622,38.622,0,0,1-6.13-4.92c-1.706-1.648-3.582-3.224-5.192-4.9a44.11,44.11,0,0,1-5.416-6.705c-1.545-2.406-3.28-4.786-4.99-7.134a81.012,81.012,0,0,1-5.542-8.988c-1.618-2.966-3.563-5.838-4.631-9-1.208-3.569-3.261-6.843-3.685-10.719-.192-1.773-1.144-3.449-1.6-5.209-.53-2.026-.9-4.095-1.327-6.147-.267-1.285-1.237-2.459-.921-3.808.374-1.595-.328-3.114-.516-4.549a53.113,53.113,0,0,1-.244-7.063c.011-4.862.114-9.731,1.487-14.51.43-1.5.439-3.241.822-4.811.322-1.316.28-2.8,1.345-3.913.583-.61.464-1.645.552-2.345.177-1.418,1.276-2.329,1.521-3.757.163-.947.707-2.328.976-3.361.613-2.351,2.348-4.105,2.852-6.379.213-.965,1.13-.65,1.379-1.285A9.162,9.162,0,0,0,173.3,130c.02-.494.011-1.116.7-1.088,1.165.047,1.663-.191.8-1.32.555-.381.575-1.1.927-1.56,2.437-3.21,4.227-6.837,6.8-10a41.664,41.664,0,0,0,3.941-5.645c1.2-2.129,3.311-3.738,4.973-5.622,2.1-2.383,4.12-4.843,6.238-7.215s4.06-5,6.548-6.913c2.415-1.854,4.046-4.385,6.449-6.244,2.45-1.9,4.4-4.453,6.738-6.549,1.537-1.377,2.7-3.411,4.46-4.229,1.726-.8,2.447-2.616,4.266-3.178,1.008-.311,1.129-1.814,2.4-2.253a9.982,9.982,0,0,0,3.26-2.461c1.768-1.7,4.076-2.406,5.842-3.987,1.326-1.188,3.189-1.879,4.356-3,1.937-1.857,4.745-2.075,6.435-4.12.471-.568,4.382-.857,4.848-.23,1.4,1.882,3.84,1.859,5.481,3.213,3.219,2.655,7.134,4.207,10.456,6.66.954.705,1.946,1.429,2.869,2.214,2.164,1.842,4.478,3.529,6.493,5.519,1.839,1.818,3.721,3.59,5.706,5.217,3.993,3.272,7.248,7.293,11.156,10.664a56.5,56.5,0,0,1,5.176,5.2c3.344,3.751,6.663,7.526,9.995,11.291a122.844,122.844,0,0,1,9.865,12.887,72.853,72.853,0,0,1,4.61,7.221c2.073,4.051,4.662,7.823,6.441,12.03,1.463,3.463,3.2,6.812,3.633,10.637a6.2,6.2,0,0,0,1.038,1.964,21.57,21.57,0,0,1,1.853,5.427c.474,1.9.819,3.841,1.3,5.742a32.1,32.1,0,0,1,.635,5.261,98.28,98.28,0,0,1,.184,9.884,78.993,78.993,0,0,1-2,15.739,101.466,101.466,0,0,1-3.364,12c-.693,1.935-1.814,3.852-2.4,5.756a45.67,45.67,0,0,1-4.317,9.34c-1.846,3.2-3.46,6.591-5.869,9.529a33.358,33.358,0,0,0-4.095,5.867c-1.3,2.558-3.36,4.621-5.184,6.8a52.4,52.4,0,0,1-7.731,8c-2.436,1.89-4.909,3.716-7.5,5.392a56.087,56.087,0,0,1-6.238,4c-3.369,1.6-6.752,3.111-10.278,4.388-2.778,1.005-5.642,1.856-8.334,3.081-2.53,1.152-5.258.86-7.845,1.437M333.945,152.7c.325-.722-.025-1.085-.1-1.5-.366-2.084-1.621-3.83-2.2-5.8a52.2,52.2,0,0,0-4.524-11.05,25.932,25.932,0,0,1-1.343-2.32,47.443,47.443,0,0,0-4.978-8.7c-1.943-2.709-3.9-5.433-5.894-8.117a40.414,40.414,0,0,1-4.256-7.073c-1.207-2.6-3.71-4.509-5.628-6.712-2.178-2.5-4.618-4.842-7.01-7.185-3.668-3.593-7.557-6.973-11.045-10.728-3.028-3.258-6.554-5.936-9.731-9.013a78.881,78.881,0,0,0-6.086-5.031c-2.361-1.867-4.67-3.858-7.174-5.519A89.942,89.942,0,0,0,253.7,57.864c-1.59-.774-5.625-.219-6.809,1.018A13.055,13.055,0,0,1,242.41,61.8c-2.211.841-3.844,2.415-5.771,3.5-1.982,1.121-3.73,3.006-5.633,4.409-2.32,1.712-4.27,3.821-6.576,5.534a10.122,10.122,0,0,0-2.519,2.223c-1.24,1.823-3.131,2.969-4.654,4.5-2.4,2.406-5.169,4.385-7.457,6.938-1.287,1.435-2.387,3.133-3.949,4.243a44.573,44.573,0,0,0-3.99,3.776,79.953,79.953,0,0,0-5.674,6.114,72.266,72.266,0,0,0-7.181,9.043c-2.387,3.749-5.164,7.249-7.715,10.9a51.161,51.161,0,0,0-4.592,7.534,69.868,69.868,0,0,1-3.3,6.185,25.605,25.605,0,0,0-2.611,6.236c-.732,2.647-1.906,5.153-2.464,7.892-.522,2.569-1.482,5.1-1.968,7.72-.622,3.347-1.54,6.643-1.24,10.132a13.887,13.887,0,0,1-.123,2.533,66.9,66.9,0,0,0-.264,11.286,27.876,27.876,0,0,0,1.184,7.493c.389,1.11-.263,2.2.356,2.98,1.388,1.742,1.476,3.93,2.284,5.864.855,2.043,1.377,4.235,2.17,6.283,1.431,3.7,3.261,7.243,5.034,10.8,1.49,2.992,3.239,5.856,4.681,8.871,1.2,2.517,3.155,4.473,4.635,6.776,1.173,1.821,2.953,3.161,4.332,4.856a26.676,26.676,0,0,0,3.652,3.635c1.99,1.635,3.469,4,5.617,5.309,3.121,1.907,5.686,4.487,8.838,6.394,3.6,2.173,7.271,4.229,11,6.1a72.558,72.558,0,0,0,11.047,4.073c3.038.947,6.294,1.244,9.3,2.2a28.881,28.881,0,0,0,8.571,1.079c3.54.041,7.117.482,10.72-.31,2.947-.647,6.007-.808,8.971-1.591,1.479-.391,2.867-1.241,4.285-1.377,1.926-.181,3.469-1.257,5.286-1.574,1.835-.322,3.2-1.771,4.931-2.233a30.854,30.854,0,0,0,6.077-2.8,42.615,42.615,0,0,0,6.075-3.671,27.929,27.929,0,0,1,4.343-2.955c1.413-.688,2.073-2.373,3.593-2.666a4.227,4.227,0,0,0,2.454-1.692c1.961-2.719,4.756-4.574,6.97-7.021.815-.9,1.3-2.708,3.1-2.73.214,0,.594-.569.6-.883.07-2.128,2.175-2.777,3.233-4.09a29.479,29.479,0,0,0,3.511-5.294c1.143-2.333,2.85-4.352,3.668-6.87.447-1.377,1.651-2.528,2-3.912a41.652,41.652,0,0,1,2.176-5.139c.847-2.114,2.182-4.023,2.515-6.376.13-.921.316-1.978,1.537-2.25.111-.025.236-.244.258-.388a27.619,27.619,0,0,1,1.37-6.64,18.5,18.5,0,0,0,1.332-6.028c.17-3.8.869-7.545.478-11.408-.2-1.984-.289-4.021-.353-6.028a47.485,47.485,0,0,0-1.277-11.564c-.491-1.737-.938-3.486-1.348-5.015" transform="translate(90.888 -54.038)" fill="#222f3f"/>
          <path id="Path_101575" data-name="Path 101575" d="M332.761,151.449c.325-.722-.025-1.085-.1-1.5-.366-2.084-1.621-3.83-2.2-5.8a52.2,52.2,0,0,0-4.524-11.05,25.938,25.938,0,0,1-1.343-2.32,47.444,47.444,0,0,0-4.978-8.7c-1.943-2.709-3.9-5.433-5.894-8.117a40.414,40.414,0,0,1-4.256-7.073c-1.207-2.6-3.71-4.509-5.628-6.712-2.178-2.5-4.618-4.842-7.01-7.185-3.668-3.593-7.557-6.973-11.045-10.728-3.028-3.258-6.554-5.936-9.731-9.013a78.864,78.864,0,0,0-6.086-5.031c-2.361-1.867-4.67-3.858-7.174-5.519a89.941,89.941,0,0,0-10.281-6.089c-1.59-.774-5.625-.219-6.809,1.018a13.054,13.054,0,0,1-4.479,2.917c-2.211.841-3.844,2.415-5.771,3.5-1.982,1.121-3.73,3.006-5.633,4.409-2.32,1.712-4.27,3.821-6.576,5.534a10.122,10.122,0,0,0-2.519,2.223c-1.24,1.823-3.131,2.969-4.654,4.5-2.4,2.406-5.169,4.385-7.457,6.938-1.287,1.435-2.387,3.133-3.949,4.243a44.576,44.576,0,0,0-3.99,3.776A79.956,79.956,0,0,0,195,101.789a72.267,72.267,0,0,0-7.181,9.043c-2.387,3.749-5.164,7.249-7.715,10.9a51.161,51.161,0,0,0-4.592,7.534,69.872,69.872,0,0,1-3.3,6.185,25.6,25.6,0,0,0-2.611,6.236c-.732,2.647-1.906,5.153-2.464,7.892-.522,2.569-1.482,5.1-1.968,7.72-.622,3.347-1.54,6.643-1.24,10.132a13.886,13.886,0,0,1-.124,2.533,66.9,66.9,0,0,0-.264,11.286,27.876,27.876,0,0,0,1.184,7.493c.389,1.11-.263,2.2.356,2.98,1.388,1.742,1.476,3.93,2.284,5.864.855,2.043,1.377,4.235,2.17,6.283,1.431,3.7,3.261,7.243,5.034,10.8,1.49,2.992,3.239,5.856,4.681,8.871,1.2,2.517,3.155,4.473,4.635,6.776,1.173,1.821,2.953,3.161,4.332,4.856a26.676,26.676,0,0,0,3.652,3.635c1.99,1.635,3.469,4,5.617,5.309,3.121,1.907,5.686,4.487,8.838,6.394,3.6,2.173,7.271,4.229,11,6.1a72.557,72.557,0,0,0,11.047,4.073c3.038.947,6.294,1.244,9.3,2.2a28.882,28.882,0,0,0,8.571,1.079c3.54.041,7.117.482,10.72-.31,2.947-.647,6.007-.808,8.971-1.592,1.479-.391,2.867-1.241,4.285-1.377,1.926-.181,3.469-1.257,5.286-1.574,1.835-.322,3.2-1.771,4.931-2.233a30.855,30.855,0,0,0,6.077-2.8,42.616,42.616,0,0,0,6.075-3.671,27.931,27.931,0,0,1,4.343-2.955c1.413-.688,2.073-2.373,3.593-2.666a4.227,4.227,0,0,0,2.454-1.692c1.961-2.719,4.756-4.574,6.97-7.021.815-.9,1.3-2.708,3.1-2.73.214,0,.594-.569.6-.883.07-2.128,2.175-2.777,3.233-4.09a29.48,29.48,0,0,0,3.511-5.294c1.143-2.333,2.85-4.352,3.668-6.87.447-1.377,1.651-2.528,2-3.912a41.648,41.648,0,0,1,2.176-5.139c.847-2.114,2.182-4.023,2.515-6.376.13-.921.316-1.978,1.537-2.25.111-.025.236-.244.258-.388a27.618,27.618,0,0,1,1.37-6.64,18.5,18.5,0,0,0,1.332-6.028c.17-3.8.869-7.545.478-11.408-.2-1.984-.289-4.021-.353-6.028a47.485,47.485,0,0,0-1.277-11.564c-.491-1.737-.938-3.486-1.348-5.015" transform="translate(92.072 -52.788)" fill="#ab99d6"/>
        </g>
        <g id="Group_89944" data-name="Group 89944" transform="translate(0.456 -0.247)">
          <path id="Path_101577" data-name="Path 101577" d="M392.068,319.361c-.328,2.55.715,4.834.317,6.837-.488,2.461-.261,4.934-.7,7.392a52.674,52.674,0,0,0-.589,7.174c-.031.907.364,2.22-1.082,2.647-.044.013-.108.113-.1.142.719,1.61-.7,2.745-.922,4.148-.306,1.921-1.287,3.629-1.871,5.419-.683,2.1-1.454,4.179-2.234,6.238-.306.811-.271,1.834-1.287,2.467-1.323.824-1.463,2.551-2.015,3.868-.569,1.363-1.521,2.442-2.167,3.732a33.406,33.406,0,0,1-4.937,6.9c-2.267,2.583-4.29,5.383-6.605,7.917a66.439,66.439,0,0,1-13.223,10.822,31.409,31.409,0,0,1-6.573,3.3c-2.253.788-4.315,2.136-6.662,2.889-2.719.872-5.542,1.441-8.18,2.508-3.161,1.277-6.674,1.254-9.724,2.813a6.745,6.745,0,0,1-2.3.377c-4.46.636-8.946,1.562-13.476,1.235-3.6-.259-7.22-.011-10.775-.358-2.375-.231-4.942-.084-7.184-1.307-1.416,1.155-2.454-2.054-3.919-.338-.693-1.756-1.995-.13-2.909-.527-1.112-.482-2.594-.428-3.371-.974-1.362-.957-2.878-.84-4.218-1.441a39.125,39.125,0,0,1-4.116-2.206c-.7-.419-1.3-.933-2.189-.689-.419.116-.674-.131-.969-.4a9.455,9.455,0,0,0-4.035-2.6c-.391-.089-.705-.264-.48-.775.108-.242.017-.691-.156-.63-2.186.758-2.916-1.556-4.181-2.339-1.456-.9-3.588-1.765-4.116-3.913-.189-.766-1.509.75-1.36-.678-2.131-.166-1.532-3.117-3.8-3.551-1.162-.22-2.056-2.062-2.988-3.239-1.757-2.218-3.429-4.52-5.05-6.821a55.322,55.322,0,0,1-5.45-9.5c-1.395-3.149-2.484-6.446-3.766-9.612-1.071-2.644-2.375-5.381-2.809-8.331a19.949,19.949,0,0,0-.5-3.829,38.335,38.335,0,0,1-2-9.1c-.117-1.485.206-3.069-.172-4.606-.646-2.62.517-5.255-.07-7.878-.578-2.581.5-5.1.356-7.637a24.771,24.771,0,0,1,.27-6.471c.546-2.5.447-5.053,1.194-7.545.918-3.064,1.307-6.307,2.259-9.393.915-2.967,1.909-5.891,3.1-8.775a58.316,58.316,0,0,0,2.229-6.191,29.223,29.223,0,0,1,3.238-6.376c1.94-3.316,3.9-6.632,6.047-9.81,1.263-1.865,2.733-3.629,4.1-5.414,1.546-2.015,3.247-3.932,4.828-5.9a37.023,37.023,0,0,1,6.582-5.913c2.564-1.957,5.272-3.726,8.023-5.437,3.213-2,4.218-1.531,5.656,1.9,1.174,2.8,1.81,5.756,3,8.547,1.14,2.664,1.515,5.627,2.58,8.363.341.877.674.913,1.44.677a52.276,52.276,0,0,0,5.523-2.362,44.833,44.833,0,0,1,12.124-3.9,76.24,76.24,0,0,1,14.561-.974c4.645.285,9.308.274,13.96.5a47.362,47.362,0,0,1,14.973,3.217c3.1,1.2,6.422,1.937,9.168,3.838,2.387,1.654,5.2,2.525,7.407,4.56a11.715,11.715,0,0,0,4.478,2.773.719.719,0,0,1,.285.192c2.078,2.111,4.524,3.882,6.507,6.01a97.417,97.417,0,0,1,6.857,8.841c1.9,2.586,3.1,5.517,4.783,8.177,1.335,2.114,1.887,4.557,3.3,6.594a10.544,10.544,0,0,1,1.1,3.286c.563,1.934,1.277,3.827,1.782,5.775a46.643,46.643,0,0,1,1.18,5.892c.145,1.158.535,2.231.749,3.357.425,2.243.886,4.479,1.273,6.418" transform="translate(127.701 48.885)" fill="#f5ebe8"/>
          <path id="Path_101578" data-name="Path 101578" d="M392.068,319.361c-.328,2.55.715,4.834.317,6.837-.488,2.461-.261,4.934-.7,7.392a52.674,52.674,0,0,0-.589,7.174c-.031.907.364,2.22-1.082,2.647-.044.013-.108.113-.1.142.719,1.61-.7,2.745-.922,4.148-.306,1.921-1.288,3.629-1.871,5.419-.683,2.1-1.454,4.179-2.234,6.236-.306.813-.271,1.835-1.287,2.469-1.323.824-1.463,2.551-2.015,3.868-.569,1.363-1.521,2.442-2.167,3.732a33.356,33.356,0,0,1-4.937,6.9c-2.267,2.584-4.29,5.384-6.605,7.919a66.439,66.439,0,0,1-13.223,10.822,31.459,31.459,0,0,1-6.574,3.3c-2.251.788-4.313,2.136-6.66,2.889-2.719.872-5.542,1.441-8.18,2.508-3.163,1.277-6.674,1.254-9.724,2.813a6.745,6.745,0,0,1-2.3.377c-4.46.636-8.946,1.562-13.476,1.235-3.6-.259-7.22-.011-10.775-.358-2.375-.231-4.942-.084-7.184-1.307-1.416,1.155-2.456-2.054-3.919-.338-.693-1.756-1.995-.13-2.909-.527-1.112-.482-2.594-.428-3.371-.974-1.362-.957-2.878-.84-4.218-1.441a39.125,39.125,0,0,1-4.116-2.206c-.7-.419-1.3-.933-2.189-.689-.419.116-.674-.131-.969-.4a9.455,9.455,0,0,0-4.035-2.6c-.391-.091-.705-.264-.48-.775.108-.242.017-.691-.156-.63-2.186.758-2.916-1.556-4.181-2.339-1.456-.9-3.59-1.765-4.116-3.913-.189-.766-1.509.75-1.36-.678-2.131-.166-1.532-3.117-3.8-3.551-1.162-.22-2.056-2.062-2.988-3.239-1.757-2.218-3.429-4.52-5.05-6.821a55.322,55.322,0,0,1-5.45-9.5c-1.395-3.149-2.484-6.446-3.766-9.612-1.071-2.644-2.376-5.381-2.809-8.331a19.949,19.949,0,0,0-.5-3.829,38.335,38.335,0,0,1-2-9.1c-.117-1.485.206-3.069-.172-4.606-.646-2.62.516-5.255-.07-7.878-.578-2.581.5-5.1.356-7.637a24.771,24.771,0,0,1,.27-6.471c.546-2.5.447-5.053,1.194-7.545.918-3.064,1.305-6.307,2.259-9.393.915-2.967,1.909-5.891,3.1-8.775a58.316,58.316,0,0,0,2.229-6.191,29.223,29.223,0,0,1,3.238-6.376c1.94-3.316,3.9-6.632,6.047-9.81,1.263-1.865,2.733-3.629,4.1-5.414,1.546-2.015,3.247-3.932,4.828-5.9a37.023,37.023,0,0,1,6.582-5.913c2.562-1.957,5.272-3.726,8.023-5.437,3.213-2,4.218-1.531,5.656,1.9,1.174,2.8,1.81,5.756,3,8.547,1.14,2.664,1.515,5.627,2.58,8.363.341.877.674.913,1.44.677a52.276,52.276,0,0,0,5.523-2.362,44.833,44.833,0,0,1,12.124-3.9,76.24,76.24,0,0,1,14.561-.974c4.645.285,9.308.274,13.96.5a47.362,47.362,0,0,1,14.973,3.217c3.1,1.2,6.422,1.937,9.168,3.838,2.387,1.654,5.2,2.525,7.407,4.56a11.715,11.715,0,0,0,4.478,2.773.719.719,0,0,1,.285.192c2.078,2.111,4.524,3.882,6.507,6.01a97.417,97.417,0,0,1,6.857,8.841c1.9,2.586,3.1,5.517,4.783,8.177,1.335,2.114,1.887,4.557,3.3,6.594a10.544,10.544,0,0,1,1.1,3.286c.563,1.934,1.277,3.827,1.782,5.775a46.643,46.643,0,0,1,1.18,5.892c.145,1.158.535,2.231.749,3.357.425,2.243.886,4.479,1.273,6.418M271.521,240.438a59.45,59.45,0,0,0-6.315,3.858,64.277,64.277,0,0,0-7.783,7.32,65.757,65.757,0,0,0-7.34,9.352c-1.47,2.359-3.169,4.59-4.451,7.04-1.812,3.468-3.18,7.168-5.008,10.625a41.761,41.761,0,0,0-2.991,6.63,47.289,47.289,0,0,1-1.692,5.187c-1.476,3.2-1.537,6.63-2.378,9.915-.236.918.161,1.97-1.049,2.447-.36.142-.511.431-.133.686,1.082.73.46,1.706.2,2.43-.621,1.76.267,3.724-.872,5.391-.844,1.234-.267,2.7.063,3.788.392,1.294-1.262,2.034-.385,3.347a3.13,3.13,0,0,1,.274,2.237c-.983,1.714-.286,3.361-.3,5.051-.019,1.931.74,3.791.294,5.8a3.785,3.785,0,0,0,.124,2.283,16.169,16.169,0,0,1,1.359,6.394,60.574,60.574,0,0,0,1.576,7.934c.636,3.107,2.2,6.021,3.308,9.036.4,1.082.419,2.378,1.037,3.289,1.248,1.835,1.873,3.949,2.894,5.878,1.221,2.3,2.67,4.451,4.016,6.652a15.162,15.162,0,0,0,1.81,2.631c1.674,1.762,3.386,3.494,4.94,5.358a64.049,64.049,0,0,0,8.864,8.328,79.7,79.7,0,0,0,7.232,4.757c2.711,1.765,5.7,2.841,8.57,4.22,3.649,1.756,7.636,2.365,11.538,3.208a32.565,32.565,0,0,1,3.7.805c1.221.417,2.573-.43,3.644.482,1.169.993,2.042-.411,3.085-.288a2.221,2.221,0,0,1,.725.163c1.9.947,3.907.588,5.9.647,1.932.058,4.2-.679,5.681.086,1.77.916,3.022-.286,4.52-.147.972.092,2.834.227,3.844-1.129.186-.25.811-.117,1.221.155a1.167,1.167,0,0,0,1.21.183c3.1-1.3,6.419-1.831,9.627-2.752,1.218-.35,2.722-.378,3.508-1.416a4.223,4.223,0,0,1,2.641-1.393,53.647,53.647,0,0,0,12.1-5.133c1.551-.847,3.127-1.871,4.631-2.783a27.338,27.338,0,0,0,3.518-2.24c3.135-2.749,6.452-5.283,9.391-8.323,2.481-2.567,4.145-5.577,6.113-8.359s3.691-5.894,5.533-8.821c3-4.767,4.574-10.023,6.218-15.257a100.2,100.2,0,0,0,2.193-10.525,4.856,4.856,0,0,0,.247-2.015c-.625-2.319-.114-4.746.161-6.895a52.171,52.171,0,0,0,.045-7.376,43.069,43.069,0,0,0-1.337-8.749c-.855-3.827-1.921-7.6-2.844-11.4a11.966,11.966,0,0,0-1.237-3.36c-3.049-5.039-6.332-9.94-9.047-15.179-.1-.2-.328-.48-.51-.491-1.435-.081-1.579-1.268-2.128-2.217-.536-.927-1.209-2.193-1.954-2.525-1.119-.5-1.159-2.154-1.5-1.986-1.56.779-1.527-.875-2.283-1.229-1.981-.929-2.569-3.71-5.178-3.876a1.1,1.1,0,0,1-.791-1.429c.1-.277-.059-1.379-.821-1-.993.5-1.568.625-1.8-.643-1.471.31-1.6-2.448-3.424-1.5-.216.113-1.169-.535-1.137-.708.411-2.182-2.2-.744-2.428-2.078-.84.228-1.824.324-2.154-.561-.219-.585-.457-.5-.85-.619-2.306-.714-4.623-1.413-6.876-2.273-.79-.3-1.585.108-2.328-.352-1.138-.7-2.509-1.432-3.71-1.243a7.282,7.282,0,0,1-5.17-1.285,1.591,1.591,0,0,0-.625-.208c-3.6-.582-7.264.22-10.817-.374-1.188-.2-2.054.463-3.249.217-2.878-.593-5.835.119-8.752.283a28.529,28.529,0,0,0-5.866.85c-1.738.467-3.56.938-5.378,1.266-1.756.316-3.235,1.54-5.048,1.826-1.643.258-2.808,1.618-4.72,1.695-1,.039-2.581,1.16-3.719,1.948-1.115.772-1.426.333-1.979-.335-1.343-1.621-1.588-3.762-2.358-5.622a41.588,41.588,0,0,1-1.546-5.417c-.89-3.466-2.136-6.793-3.3-10.178" transform="translate(127.878 48.755)" fill="#222f3f"/>
        </g>
        <g id="Group_89946" data-name="Group 89946" transform="translate(0.286)">
          <g id="Group_89945" data-name="Group 89945">
            <path id="Path_101591" data-name="Path 101591" d="M98.986,315.937c.488-.155.836.324,1.291-.15-1.515-.969-.769-1.973,0-2.925a5.452,5.452,0,0,0,.943-2.716c.264-2.528,1.69-4.709,2.026-7.017.632-4.354,3.136-7.736,5.137-11.26a70.024,70.024,0,0,1,5.877-8.4c1.329-1.7,2.165-3.749,3.758-5.258,1.355-1.285,2.788-2.5,4.057-3.863.983-1.06,1.724-2.312,2.723-3.405,1.416-1.549,3.169-2.536,4.639-3.919,2.142-2.015,4.8-3.4,6.938-5.331,2.2-1.993,4.809-3.172,7.195-4.773.833-.558,1.953-.944,2.43-1.723.805-1.318,2.315-1.305,3.371-1.907,1.473-.841,2.958-1.85,4.542-2.6.924-.436,2.009-.988,2.906-1.337,5.036-1.956,9.953-4.345,15.3-5.358a70.614,70.614,0,0,0,6.907-1.654,50.651,50.651,0,0,1,10.154-1.81,98.381,98.381,0,0,1,10.373-.619c4.03.084,8.05.546,12.062.757,4.479.235,8.586,1.712,12.828,2.711a34.8,34.8,0,0,1,7.207,3c2.559,1.268,2.623,2.486,1.1,4.853-1.9,2.945-4.095,5.681-6.085,8.558-1.463,2.118-3.219,4.095-4.748,6.218-.516.718-.272,1.015.239,1.477a23.355,23.355,0,0,0,4.69,2.814,54.305,54.305,0,0,1,14.092,11.446,56.977,56.977,0,0,1,7.428,9.763c2.1,3.705,4.676,7.084,6.815,10.761a60.349,60.349,0,0,1,5.09,11.3,70.851,70.851,0,0,1,3.15,15.215c.256,2.436-.127,4.85.213,7.31.2,1.455.729,3.411-.275,5.212-.475.854-.267,2.381-.317,3.563a39.521,39.521,0,0,1-2.372,10.842c-.913,2.72-1.568,5.63-3.18,8.183-1.759,2.784-3.067,5.853-4.635,8.763-1.824,3.388-4.5,6.063-6.58,9.208a22.633,22.633,0,0,1-4.2,4.315,43.3,43.3,0,0,0-5.042,5.8,2.789,2.789,0,0,1-1.091.957c-2.082.84-3.144,3.019-5.32,3.9a13.427,13.427,0,0,0-2.839,2.095c-1.112.915-2.551,1.3-3.641,2.087-1.975,1.421-4.129,2.478-6.179,3.733-.972.6-2.228.61-3.039.955-1.352.578-2.8.946-4.137,1.566a37.437,37.437,0,0,1-5.234,1.518c-2,.607-4.027,1.194-6.044,1.788a8.192,8.192,0,0,1-3.244.511,13.1,13.1,0,0,0-3.23.421,54.163,54.163,0,0,1-13.425.607c-3.455-.313-7-.139-10.362-.861-3.813-.818-7.84-.786-11.432-2.666a21.472,21.472,0,0,0-3.869-1.265,30.681,30.681,0,0,1-7.775-3.765c-2.087-1.334-4.468-2.162-6.424-3.769a77.865,77.865,0,0,0-7.146-5.6c-2.636-1.687-4.4-4.421-7.343-5.624-.918-.375-1.316-1.36-1.954-2.006-3.088-3.13-6.316-6.186-8.66-9.964-1.948-3.136-4.124-6.113-6.183-9.168-1.573-2.331-3.227-4.867-3.8-7.536-.466-2.179-1.875-3.544-2.623-5.366-.855-2.081-1.31-4.326-1.978-6.487A25.055,25.055,0,0,1,99,342.069c-.041-.688,1.024-1.732-.786-1.824-.485-.025-.324-1.42-.145-1.818a3.626,3.626,0,0,0-.139-3.013,1.162,1.162,0,0,1-.067-.55c.5-3.493-.116-7.026.408-10.517a10.339,10.339,0,0,0,.108-4.771c-.113-.358.156-.588.352-.818,1.049-1.241,1.052-1.238.258-2.82" transform="translate(54.997 51.106)" fill="#d6d1ed"/>
            <path id="Path_101592" data-name="Path 101592" d="M98.986,315.938c.489-.156.836.322,1.291-.15-1.515-.969-.769-1.975,0-2.925a5.46,5.46,0,0,0,.944-2.717c.264-2.526,1.69-4.707,2.025-7.015.632-4.354,3.136-7.736,5.137-11.26a70.216,70.216,0,0,1,5.877-8.406c1.329-1.695,2.167-3.747,3.758-5.258,1.355-1.284,2.788-2.5,4.057-3.862.985-1.06,1.724-2.312,2.725-3.405,1.415-1.549,3.169-2.537,4.637-3.919,2.142-2.015,4.8-3.4,6.938-5.333,2.2-1.992,4.809-3.171,7.195-4.772.833-.56,1.953-.946,2.429-1.724.805-1.316,2.317-1.3,3.372-1.907,1.471-.84,2.956-1.849,4.54-2.6.924-.435,2.009-.986,2.906-1.337,5.036-1.954,9.953-4.343,15.3-5.358a70.241,70.241,0,0,0,6.905-1.653,50.687,50.687,0,0,1,10.154-1.81,97.954,97.954,0,0,1,10.373-.619c4.032.083,8.05.546,12.063.755,4.478.235,8.586,1.712,12.826,2.712a34.759,34.759,0,0,1,7.209,3c2.558,1.266,2.622,2.484,1.094,4.851-1.9,2.945-4.095,5.683-6.083,8.56-1.465,2.118-3.221,4.094-4.75,6.218-.516.718-.27,1.015.239,1.477a23.444,23.444,0,0,0,4.69,2.814,54.274,54.274,0,0,1,14.092,11.446,57.067,57.067,0,0,1,7.429,9.763c2.1,3.705,4.675,7.084,6.813,10.761a60.2,60.2,0,0,1,5.09,11.3,70.857,70.857,0,0,1,3.15,15.213c.258,2.437-.127,4.851.213,7.312.2,1.455.729,3.411-.274,5.211-.477.855-.269,2.383-.319,3.565a39.393,39.393,0,0,1-2.372,10.841c-.913,2.722-1.568,5.63-3.18,8.184-1.757,2.784-3.067,5.852-4.635,8.763-1.824,3.388-4.5,6.063-6.58,9.207a22.593,22.593,0,0,1-4.2,4.317,43.178,43.178,0,0,0-5.04,5.8,2.793,2.793,0,0,1-1.093.957c-2.082.84-3.144,3.019-5.32,3.9a13.411,13.411,0,0,0-2.839,2.095c-1.112.913-2.551,1.3-3.641,2.086-1.975,1.423-4.129,2.478-6.177,3.735-.974.6-2.229.608-3.041.955-1.351.579-2.8.944-4.137,1.567a37.628,37.628,0,0,1-5.233,1.518c-2.006.607-4.029,1.194-6.046,1.789a8.244,8.244,0,0,1-3.242.511,12.969,12.969,0,0,0-3.232.421,54.166,54.166,0,0,1-13.425.607c-3.455-.313-7-.141-10.362-.862-3.812-.818-7.84-.786-11.432-2.667a21.461,21.461,0,0,0-3.869-1.263,30.7,30.7,0,0,1-7.773-3.765c-2.089-1.334-4.468-2.162-6.426-3.769a77.889,77.889,0,0,0-7.146-5.6c-2.636-1.687-4.4-4.42-7.343-5.622-.918-.375-1.316-1.362-1.954-2.007-3.088-3.128-6.315-6.185-8.66-9.962-1.946-3.138-4.124-6.113-6.183-9.168-1.573-2.333-3.227-4.867-3.8-7.535-.467-2.179-1.876-3.544-2.625-5.366-.855-2.082-1.31-4.326-1.978-6.488A25.107,25.107,0,0,1,99,342.07c-.041-.688,1.024-1.734-.786-1.826-.485-.023-.324-1.418-.145-1.817a3.636,3.636,0,0,0-.138-3.014,1.161,1.161,0,0,1-.069-.55c.5-3.491-.116-7.026.408-10.517a10.311,10.311,0,0,0,.108-4.77c-.113-.36.158-.588.352-.818,1.049-1.243,1.052-1.238.258-2.82m130.781-66.876a9.454,9.454,0,0,1-1.756-.492,41.5,41.5,0,0,0-15.709-4.332c-3.485-.3-7.027-.949-10.459-.6-5.322.541-10.731.278-15.981,1.756-3.872,1.09-8.011,1.041-11.857,2.342-4.2,1.421-8.666,2.026-12.553,4.49-1.1.694-2.687,1.767-3.693,1.663-1.762-.18-2.239,1.385-3.474,1.593-1.95.327-2.864,2.481-5.1,2.515-2.312.038-2.952,3.705-5.794,3.122-.832,2.259-3.289,2.383-4.811,3.691-2.157,1.856-4.254,3.774-6.518,5.513-.635.488-1.765.461-1.928,1.185-.521,2.306-2.631,3.316-4.029,4.711a60.653,60.653,0,0,0-8.288,9.873c-2.628,4.073-5.655,7.9-7.653,12.416-1.018,2.3-2.14,4.609-3.039,6.946a15.243,15.243,0,0,0-1.309,4c-.142,1.491-.815,2.925-1.072,4.415q-.891,5.171-1.593,10.372a38.085,38.085,0,0,0-.355,6.873c.073,1.571-.041,3.246.145,4.7.352,2.752.772,5.549,1.4,8.3a69.92,69.92,0,0,0,2.34,8.3c.911,2.525,2.211,4.911,3.353,7.349.622,1.326,2.1,2.819,1.975,3.783-.289,2.139,1.731,1.782,2.229,2.892.406.908.224,1.956.929,2.8,2.677,3.2,4.564,6.97,7.339,10.121,1.132,1.287,2.068,2.672,3.735,3.336a1.815,1.815,0,0,1,.952,1.326c.111.4.073.827.593,1.069,1.712.8,2.609,2.758,4.56,3.258a1.221,1.221,0,0,1,.718.544c1.162,2.245,3.35,3.336,5.408,4.338a24.667,24.667,0,0,1,3.407,2,62.55,62.55,0,0,0,10.8,6.3,45.537,45.537,0,0,0,4.865,2.087c1.116.341,2.631,1.226,3.79,1.529a112.423,112.423,0,0,0,12.27,2.823c3.322.483,6.507-.306,9.757.2,1.735.274,3.607-.5,5.412-.478a49.144,49.144,0,0,0,14.263-1.776,71.815,71.815,0,0,0,11.5-3.937c2.425-1.173,5.122-2,7.218-3.585,3.546-2.672,7.567-4.582,10.991-7.493a57.625,57.625,0,0,0,6.333-5.724c2.367-2.731,4.812-5.452,7.038-8.344a39.623,39.623,0,0,0,4.981-8.194c1.46-3.3,3.07-6.551,4.274-9.945.455-1.282,1.638-2.406,1.4-3.782a2.547,2.547,0,0,1,.461-2.318c.929-.974.88-2.312,1.146-3.378a19.4,19.4,0,0,0,.388-5.553c-.1-2.018.943-3.941.3-6.183-.288-1,1.391-2.5-.124-3.8,1.14-2.131-.444-4.271.089-6.566.4-1.723-.661-3.9-1.221-5.788-.621-2.1-1.129-4.246-1.892-6.307-.747-2.015-1.207-4.193-2.276-6.016a11.992,11.992,0,0,1-1.92-4.243c-.569-3.661-3.377-6.146-5.233-9.069a59.91,59.91,0,0,0-6.121-8.039c-.4-.446-1-.7-1.232-1.329-.782-2.151-2.777-3.332-4.193-4.951-.915-1.043-2.459-1.818-3.394-2.831-2.042-2.214-4.765-3.264-7.087-4.961-.9-.655-1.717-1.54-2.969-1.538.308-1.606-.933-1.1-1.713-1.293-2.256-.569-3.785-3.491-2.476-4.968,2.359-2.659,4.151-5.738,6.457-8.424a86.421,86.421,0,0,0,6.007-8.306" transform="translate(55.129 50.678)" fill="#222f3f"/>
          </g>
        </g>
        <g id="Group_89947" data-name="Group 89947" transform="translate(0.134)">
          <path id="Path_101600" data-name="Path 101600" d="M165.434,194.2c2.467.07,4.227-.877,6.149-.7.514.047.461-.391.317-.805A57.544,57.544,0,0,0,164.119,177a65.313,65.313,0,0,0-6.465-8.053c-3.225-3.15-6.114-6.784-9.854-9.268-3.676-2.44-6.791-5.555-10.561-7.887-3.064-1.9-6.094-3.862-9.18-5.741-1.3-.794-2.806-.94-4.026-1.685a12.122,12.122,0,0,0-3.257-1.379c-1.022-.275-1.751-1.1-2.867-1.49-2.015-.7-4.359-.675-6.088-2.143a4.938,4.938,0,0,0-3.887-1.008c-1.432.184-1.961-1.352-3.449-1.154-1.673.224-3.232-1.133-4.906-1.384-2.716-.406-5.45-.611-8.156-1.185-.805-.172-1.632-.9-2.34-.6-2.222.955-4.442.156-6.608.055-2.62-.125-5.258-.163-7.847-.058-2.878.116-5.774.66-8.652,1.049a75.537,75.537,0,0,0-9.018,1.492,57.011,57.011,0,0,0-6.973,2.308,73.363,73.363,0,0,0-9.785,4.6c-5.123,3.045-10.254,6.172-14.422,10.509-.99,1.03-2.131,1.889-3.072,2.981-1.72,1.995-3.321,4.069-4.945,6.138a48.272,48.272,0,0,0-4.731,7.436c-1.266,2.408-2.243,4.97-3.283,7.492-.539,1.31-.549,3.192-1.488,3.907-1.587,1.205-.174,2.481-.685,3.6-.386.84-1.174,1.391-1.352,2.408-.725,4.138-2.159,8.119-2.694,12.313-.22,1.729-.816,3.38.027,5.1a1.359,1.359,0,0,1-.381,1.395,1.571,1.571,0,0,0-.313,1.695c.41,1.36-.2,2.78.316,4.2a3.611,3.611,0,0,1,.235,1.856,12.548,12.548,0,0,0,.441,6.991,16.278,16.278,0,0,1,.771,3.35,60.823,60.823,0,0,0,2.353,12.406,39.859,39.859,0,0,0,1.81,5.328c.555,1.265.971,2.839,1.57,4.118a86.985,86.985,0,0,0,5.93,10.762c1.89,2.894,4.39,5.092,6.621,7.531,2.373,2.6,5.131,4.954,7.6,7.467,3.274,3.328,7.209,5.55,10.975,8.062a12.541,12.541,0,0,0,3.075,1.854c4.232,1.343,7.986,3.848,12.441,4.77,3.424.708,6.674,2.193,10.193,2.731a86.258,86.258,0,0,0,10.881,1.024c3.707.094,7.376-.306,11.061-.2,3.508.1,6.613-1.415,9.856-2.347,3.4-.977,6.637-2.628,10.018-3.463,2.061-.51,3.557-1.848,5.511-2.455a10.137,10.137,0,0,0,5.52-3.557c1.388-2.054,4.582-1.986,5.387-4.692.053-.178.4-.271.613-.4.858-.53,3.1.356,2.117-2.067-.009-.022.074-.1.125-.127a7.621,7.621,0,0,0,3.883-3.813c.369-.813,1.237.288,1.6-.661.883-2.3,2.83-3.912,4.107-5.975.361-.583.283-1.237.758-1.826a31.9,31.9,0,0,0,4.292-7.368c.89-2.048,1.184-4.37,2.974-5.974.161-.144.133-.48.25-.7,1.393-2.559,1.466-5.491,2.267-8.22a98.494,98.494,0,0,0,1.989-10.017c.474-2.591,1.337-5.216,1.2-7.783a83.181,83.181,0,0,0-.406-8.384c-.183-1.191-.78-2.43-.627-3.5.294-2.036-1.565-3.838-.422-5.856-1.305-1.037-.608-2.711-1.2-3.851-.494-.954.072-1.152.4-1.581a2.349,2.349,0,0,1,1.981-.84c2.048.424,3.9-.8,5.963-.45a6.251,6.251,0,0,0,2.88-.1c1.943-.705,3.908-.158,5.259-.485" transform="translate(1.781 -9.104)" fill="#ebf0f7"/>
          <path id="Path_101601" data-name="Path 101601" d="M92.068,295.175c-1.751.214-3.885.583-6.032.7a27.186,27.186,0,0,1-5.73-.159c-2.587-.41-5.156.083-7.74-.122-.968-.075-1.932-.178-2.9-.3a53.893,53.893,0,0,1-10.4-2.184c-3.561-1.2-7.168-2.237-10.734-3.41-.9-.3-1.04-1.405-1.9-1.676a22.267,22.267,0,0,1-5.258-2.672c-2.433-1.556-4.892-3.072-7.339-4.607-1.784-1.116-3.682-2.121-4.548-4.213-.317-.769-1.049-.111-1.571-.624-3.6-3.536-7.356-6.863-10.256-11.119-1.452-2.131-3.23-4.124-4.818-6.222-.886-1.173-1.521-2.472-2.373-3.654-2.686-3.729-4.173-8.1-5.95-12.282a29.011,29.011,0,0,1-1.771-6.977c-.388-2.567-1.37-5.048-1.5-7.689a61.14,61.14,0,0,0-.511-8.488c-.6-3.125.2-6.285-.638-9.354-.275-1.005.134-2.006.1-3.038a38.637,38.637,0,0,1,.524-6.876,53.111,53.111,0,0,1,1.61-7.226c.385-1.3.619-2.974.955-4.31.669-2.664,1.035-5.491,2.29-7.989.769-1.532.872-3.347,1.97-4.7,2.034-2.519,1.751-6.138,3.807-8.477,1.373-1.559,1.84-3.588,3.521-5.07,1.087-.958,1.785-2.619,3.339-3.361.124-.059.28-.342.238-.416-1.044-1.793.591-1.995,1.54-2.544a3.434,3.434,0,0,0,1.2-1.391c.4-.675.693-1.515,1.754-1.338.542.091.661-.18.513-.646a.572.572,0,0,1,.3-.766c2.358-1.362,4.095-3.529,6.372-4.972.908-.574,2.539-1.28,2.631-1.718.466-2.184,3.712-.492,3.716-2.909,1.61.752,1.957-1.405,3.5-1.51a6.972,6.972,0,0,0,3.787-1.845c1.234-1.174,3.008-1.355,4.5-2.064a54.311,54.311,0,0,1,5.633-2.137A51.853,51.853,0,0,1,63.38,132.8c4.235-.618,8.48-1.176,12.724-1.721a4.143,4.143,0,0,1,2.237.05c1.718.9,3.672.514,5.217.328a24.778,24.778,0,0,1,6.21.1c3.788.489,7.545,1.257,11.283,2.061,1.21.26,2.7-.1,3.475.317,1.3.7,2.814.541,3.923,1.343,1.51,1.093,3.3.972,4.942,1.368,1.445.349,2.667,1.091,4.03,1.542s2.756.83,4.12,1.341c3.335,1.249,6.46,2.9,9.638,4.449,4.826,2.348,9.077,5.622,13.53,8.581a54.952,54.952,0,0,1,8.356,6.549c2.406,2.389,5.023,4.6,7.24,7.193,2.642,3.081,4.984,6.41,7.515,9.563,3.408,4.245,5.275,9.216,7.6,13.963a20.423,20.423,0,0,1,1.729,5.631c.241,1.506-.17,2.542-1.981,2.908a114.888,114.888,0,0,1-12.334,1.5,66.968,66.968,0,0,1-7.038.6c-.9-.012-1.032.475-.907,1.193.306,1.737.541,3.491.938,5.208a44.3,44.3,0,0,1,1.276,13.411,70.817,70.817,0,0,1-2.212,14.393c-1.3,4.468-2.237,9.041-3.472,13.531a46.928,46.928,0,0,1-6.308,13.77c-1.878,2.8-3.3,5.964-5.822,8.245-2.125,1.921-3.429,4.573-6.028,6.1-1.482.871-2.509,2.512-3.752,3.8a4.248,4.248,0,0,1-.849.725c-2.253,1.338-4.155,3.274-6.427,4.451a83.48,83.48,0,0,1-8.807,4.285,66.391,66.391,0,0,1-8.058,2.908c-2.572.608-5,1.757-7.726,1.837-1.739.05-3.314,1.3-5.574.852m74.913-99.286c2.467.07,4.227-.877,6.149-.7.514.047.461-.391.317-.805a57.544,57.544,0,0,0-7.781-15.69,65.312,65.312,0,0,0-6.465-8.053c-3.225-3.15-6.114-6.784-9.854-9.268-3.676-2.44-6.791-5.555-10.561-7.887-3.064-1.9-6.094-3.862-9.18-5.741-1.3-.794-2.806-.94-4.026-1.685a12.121,12.121,0,0,0-3.257-1.379c-1.022-.275-1.751-1.1-2.867-1.49-2.015-.7-4.359-.675-6.088-2.143a4.938,4.938,0,0,0-3.887-1.008c-1.432.184-1.961-1.352-3.449-1.154-1.673.224-3.232-1.133-4.906-1.384-2.716-.406-5.45-.611-8.156-1.185-.805-.172-1.632-.9-2.34-.6-2.222.955-4.442.156-6.608.055-2.62-.125-5.258-.163-7.847-.058-2.878.116-5.774.66-8.652,1.049a75.534,75.534,0,0,0-9.018,1.492,57.014,57.014,0,0,0-6.973,2.308,73.363,73.363,0,0,0-9.785,4.6c-5.123,3.045-10.254,6.172-14.422,10.509-.99,1.03-2.131,1.889-3.072,2.981-1.72,1.995-3.321,4.069-4.945,6.138a48.274,48.274,0,0,0-4.731,7.436c-1.266,2.408-2.243,4.97-3.283,7.492-.539,1.31-.549,3.192-1.488,3.907-1.587,1.205-.174,2.481-.685,3.6-.386.84-1.174,1.391-1.352,2.408-.725,4.138-2.159,8.119-2.694,12.313-.22,1.729-.816,3.38.027,5.1a1.359,1.359,0,0,1-.381,1.395,1.571,1.571,0,0,0-.313,1.695c.41,1.36-.2,2.78.316,4.2a3.611,3.611,0,0,1,.235,1.856,12.548,12.548,0,0,0,.441,6.991,16.278,16.278,0,0,1,.771,3.35,60.823,60.823,0,0,0,2.353,12.406,39.858,39.858,0,0,0,1.81,5.328c.555,1.265.971,2.839,1.57,4.118a86.985,86.985,0,0,0,5.93,10.762c1.89,2.894,4.39,5.092,6.621,7.531,2.373,2.6,5.131,4.954,7.6,7.467,3.274,3.328,7.209,5.55,10.975,8.062a12.541,12.541,0,0,0,3.075,1.854c4.232,1.343,7.986,3.848,12.441,4.77,3.424.708,6.674,2.193,10.193,2.731a86.264,86.264,0,0,0,10.881,1.024c3.707.094,7.376-.306,11.061-.2,3.508.1,6.613-1.415,9.856-2.347,3.4-.977,6.637-2.628,10.018-3.463,2.061-.51,3.557-1.848,5.511-2.455a10.137,10.137,0,0,0,5.52-3.557c1.388-2.054,4.582-1.985,5.387-4.692.053-.178.4-.271.613-.4.858-.53,3.1.356,2.117-2.067-.009-.022.073-.1.125-.127a7.622,7.622,0,0,0,3.883-3.813c.369-.813,1.237.288,1.6-.661.883-2.3,2.83-3.912,4.107-5.975.361-.583.283-1.237.758-1.826a31.9,31.9,0,0,0,4.292-7.368c.89-2.048,1.184-4.37,2.974-5.974.161-.144.133-.48.25-.7,1.393-2.559,1.466-5.491,2.267-8.22a98.493,98.493,0,0,0,1.989-10.017c.474-2.591,1.337-5.215,1.2-7.783a83.177,83.177,0,0,0-.406-8.384c-.183-1.191-.78-2.43-.627-3.5.294-2.036-1.565-3.838-.422-5.856-1.305-1.037-.608-2.711-1.2-3.851-.494-.954.072-1.152.4-1.581a2.349,2.349,0,0,1,1.981-.84c2.048.424,3.9-.8,5.963-.45a6.252,6.252,0,0,0,2.88-.1c1.943-.705,3.908-.158,5.259-.485" transform="translate(0 -10.706)" fill="#222f3f"/>
        </g>
        <g id="Group_89856" data-name="Group 89856" transform="matrix(0.961, -0.276, 0.276, 0.961, 155.711, 129.734)">
          <g id="Group_89855" data-name="Group 89855" transform="translate(0 0)" clip-path="url(#clip-path)">
            <path id="Path_101609" data-name="Path 101609" d="M91.728,0C82.693.34,73.635,1.733,65.292,5.337A38.673,38.673,0,0,0,59.807,8.23a64.787,64.787,0,0,0-23.369.189,92.338,92.338,0,0,0-23.707,7.943c-2.3,1.106-4.6,2.287-6.814,3.591Q10.9,13.11,15.892,6.262c1.087-1.49-1.394-2.913-2.466-1.44L.241,22.925c-.711.974.285,2.038,1.231,2.149l24.047,2.808c1.827.215,1.806-2.644,0-2.856l-18.865-2.2A89.707,89.707,0,0,1,34.567,11.7a62.891,62.891,0,0,1,21.967-1.073,24.538,24.538,0,0,0-5,5.631,14.322,14.322,0,0,0-1.7,12.364c1.76,4.924,6.343,8.311,11.363,9.356a21.552,21.552,0,0,0,16.259-3.5c4.017-2.788,6.995-7.469,5.369-12.452-2.371-7.265-11.807-10.758-18.37-12.681-.188-.055-.38-.1-.57-.156,8.437-4.529,18.412-5.97,27.851-6.328,1.835-.067,1.842-2.923,0-2.853M76.171,17.922c2.1,1.627,4.089,3.884,4.262,6.654.322,5.066-5.258,8.534-9.394,9.924C65.584,36.338,59.2,35.77,54.992,31.562a10.484,10.484,0,0,1-2.467-10.781c1.264-4,4.406-7.12,7.864-9.49.907.192,1.814.4,2.715.64a36.96,36.96,0,0,1,13.066,5.991" transform="translate(0 0)" fill="#8450ff"/>
          </g>
        </g>
        <g id="Group_89859" data-name="Group 89859" transform="translate(530.655 153.324) rotate(-178)">
          <g id="Group_89855-2" data-name="Group 89855" transform="translate(0 0)" clip-path="url(#clip-path-2)">
            <path id="Path_101609-2" data-name="Path 101609" d="M91.728,38.366c-9.034-.339-18.093-1.732-26.436-5.335a38.674,38.674,0,0,1-5.484-2.894,64.787,64.787,0,0,1-23.369-.189A92.338,92.338,0,0,1,12.731,22c-2.3-1.106-4.6-2.287-6.814-3.591q4.987,6.844,9.974,13.692c1.087,1.49-1.394,2.913-2.466,1.44L.241,15.443c-.711-.974.285-2.038,1.231-2.149l24.047-2.808c1.827-.215,1.806,2.644,0,2.856l-18.865,2.2A89.707,89.707,0,0,0,34.567,26.669a62.891,62.891,0,0,0,21.967,1.073,24.538,24.538,0,0,1-5-5.631,14.321,14.321,0,0,1-1.7-12.364c1.76-4.924,6.343-8.311,11.363-9.356A21.552,21.552,0,0,1,77.448,3.9c4.017,2.788,6.995,7.469,5.369,12.452-2.371,7.265-11.807,10.758-18.37,12.681-.188.055-.38.1-.57.156,8.437,4.529,18.412,5.97,27.851,6.328,1.835.067,1.842,2.923,0,2.853M76.171,20.446c2.1-1.627,4.089-3.884,4.262-6.654.322-5.066-5.258-8.534-9.394-9.924C65.584,2.03,59.2,2.6,54.992,6.806a10.484,10.484,0,0,0-2.467,10.781c1.264,4,4.406,7.12,7.864,9.49.907-.192,1.814-.4,2.715-.64a36.96,36.96,0,0,0,13.066-5.991" transform="translate(0 0)" fill="#8450ff"/>
          </g>
        </g>
        <g id="Group_89857" data-name="Group 89857" transform="matrix(0.629, -0.777, 0.777, 0.629, 242.701, 269.949)">
          <g id="Group_89855-3" data-name="Group 89855" transform="translate(0 0)" clip-path="url(#clip-path-3)">
            <path id="Path_101609-3" data-name="Path 101609" d="M75.818,0c-7.467.28-14.955,1.432-21.851,4.41A31.966,31.966,0,0,0,49.434,6.8a53.55,53.55,0,0,0-19.316.156,76.323,76.323,0,0,0-19.6,6.566c-1.9.914-3.8,1.891-5.632,2.968L13.136,5.176c.9-1.232-1.152-2.407-2.038-1.19L.2,18.949c-.588.805.235,1.684,1.018,1.776l19.876,2.321c1.51.177,1.493-2.186,0-2.361L5.5,18.863A74.148,74.148,0,0,1,28.571,9.669a51.983,51.983,0,0,1,18.157-.887,20.282,20.282,0,0,0-4.136,4.654,11.838,11.838,0,0,0-1.408,10.22,12.568,12.568,0,0,0,9.393,7.733,17.814,17.814,0,0,0,13.439-2.9c3.32-2.3,5.782-6.173,4.438-10.293-1.959-6-9.76-8.892-15.184-10.481-.155-.045-.314-.084-.471-.129C59.771,3.847,68.016,2.656,75.818,2.36,77.335,2.3,77.34-.057,75.818,0M62.959,14.813c1.735,1.345,3.38,3.21,3.523,5.5.266,4.187-4.346,7.054-7.764,8.2-4.509,1.519-9.788,1.05-13.264-2.428a8.666,8.666,0,0,1-2.039-8.911c1.044-3.306,3.642-5.885,6.5-7.844.75.158,1.5.332,2.244.529a30.549,30.549,0,0,1,10.8,4.952" transform="translate(0 0)" fill="#8450ff"/>
          </g>
        </g>
        <g id="Group_89858" data-name="Group 89858" transform="matrix(-0.485, -0.875, 0.875, -0.485, 419.055, 291.87)">
          <g id="Group_89855-4" data-name="Group 89855" transform="translate(0 0)" clip-path="url(#clip-path-3)">
            <path id="Path_101609-4" data-name="Path 101609" d="M75.818,31.712c-7.467-.28-14.955-1.432-21.851-4.41a31.966,31.966,0,0,1-4.533-2.392,53.55,53.55,0,0,1-19.316-.156,76.323,76.323,0,0,1-19.6-6.566c-1.9-.914-3.8-1.891-5.632-2.968l8.244,11.317c.9,1.232-1.152,2.407-2.038,1.19L.2,12.765c-.588-.805.235-1.684,1.018-1.776L21.093,8.667c1.51-.177,1.493,2.186,0,2.361L5.5,12.85a74.148,74.148,0,0,0,23.071,9.194,51.983,51.983,0,0,0,18.157.887,20.282,20.282,0,0,1-4.136-4.654,11.838,11.838,0,0,1-1.408-10.22A12.568,12.568,0,0,1,50.576.324a17.814,17.814,0,0,1,13.439,2.9c3.32,2.3,5.782,6.173,4.438,10.293-1.959,6-9.76,8.892-15.184,10.481-.155.045-.314.084-.471.129,6.974,3.743,15.219,4.934,23.021,5.231,1.517.055,1.522,2.416,0,2.358M62.959,16.9c1.735-1.345,3.38-3.21,3.523-5.5.266-4.187-4.346-7.054-7.764-8.2-4.509-1.519-9.788-1.05-13.264,2.428a8.666,8.666,0,0,0-2.039,8.911c1.044,3.306,3.642,5.885,6.5,7.844.75-.158,1.5-.332,2.244-.529a30.549,30.549,0,0,0,10.8-4.952" transform="translate(0 0)" fill="#8450ff"/>
          </g>
        </g>
        <g id="physiotherapy" transform="translate(45.103 168.851)">
          <path id="Path_101667" data-name="Path 101667" d="M49.424,11.356a1.073,1.073,0,0,0-1.394,1.633c11.4,9.423,11.4,31.655,0,41.076A1.074,1.074,0,0,0,49.424,55.7c12.4-10.262,12.4-34.083,0-44.341Z" transform="translate(3.039 0.664)" fill="#3b3659"/>
          <path id="Path_101668" data-name="Path 101668" d="M21.177,13.8H22.25v2.146a3.223,3.223,0,0,0,3.219,3.219h3.417a12.058,12.058,0,0,0-.2,3.219H27.615a2.148,2.148,0,0,0-2.146,2.146v3.219A2.148,2.148,0,0,0,27.615,29.9h1.073c.016,1.321-.232,3.308.837,4.292a4.149,4.149,0,0,0-.837,3.219H27.615a2.149,2.149,0,0,0-2.146,2.146v3.219a2.149,2.149,0,0,0,2.146,2.146h1.073c.049.809-.151,3.571.2,4.292H25.469a3.223,3.223,0,0,0-3.219,3.219V53.5H21.177a2.149,2.149,0,0,0-2.146,2.146V58.87a2.149,2.149,0,0,0,2.146,2.146H22.25v2.146a3.223,3.223,0,0,0,3.219,3.219H38.345a3.223,3.223,0,0,0,3.219-3.219V61.016h1.073a2.149,2.149,0,0,0,2.146-2.146V55.651A2.149,2.149,0,0,0,42.637,53.5H41.564a6.133,6.133,0,0,0-.2-2.146h3.417A3.223,3.223,0,0,0,48,48.14V44.921h1.073a2.149,2.149,0,0,0,2.146-2.146V39.556a2.149,2.149,0,0,0-2.146-2.146H48a4.148,4.148,0,0,0-.837-3.219c1.068-.98.822-2.975.837-4.292h1.073a2.148,2.148,0,0,0,2.146-2.146V24.533a2.148,2.148,0,0,0-2.146-2.146H48V20.241a3.223,3.223,0,0,0-3.219-3.219H41.366a12.058,12.058,0,0,0,.2-3.219h1.073a2.148,2.148,0,0,0,2.146-2.146V8.438a2.148,2.148,0,0,0-2.146-2.146H41.564V5.219A3.223,3.223,0,0,0,38.345,2H25.469A3.223,3.223,0,0,0,22.25,5.219V6.292H21.177a2.148,2.148,0,0,0-2.146,2.146v3.219A2.148,2.148,0,0,0,21.177,13.8Zm21.46,41.848V58.87H40.491a1.072,1.072,0,0,0-1.073,1.073v3.219a1.074,1.074,0,0,1-1.073,1.073H25.469A1.074,1.074,0,0,1,24.4,63.162V59.943a1.072,1.072,0,0,0-1.073-1.073H21.177V55.651h2.146A1.072,1.072,0,0,0,24.4,54.578V52.432a1.074,1.074,0,0,1,1.073-1.073H38.345a1.074,1.074,0,0,1,1.073,1.073v2.146a1.072,1.072,0,0,0,1.073,1.073Zm6.438-16.1v3.219H46.929a1.072,1.072,0,0,0-1.073,1.073V48.14a1.074,1.074,0,0,1-1.073,1.073H31.907a1.074,1.074,0,0,1-1.073-1.073V43.848a1.072,1.072,0,0,0-1.073-1.073H27.615V39.556h2.146a1.072,1.072,0,0,0,1.073-1.073V36.336a1.074,1.074,0,0,1,1.073-1.073H44.783a1.074,1.074,0,0,1,1.073,1.073v2.146a1.072,1.072,0,0,0,1.073,1.073ZM44.783,19.168a1.074,1.074,0,0,1,1.073,1.073V23.46a1.073,1.073,0,0,0,1.073,1.073h2.146v3.219H46.929a1.073,1.073,0,0,0-1.073,1.073v3.219a1.074,1.074,0,0,1-1.073,1.073H31.907a1.074,1.074,0,0,1-1.073-1.073V28.825a1.073,1.073,0,0,0-1.073-1.073H27.615V24.533h2.146a1.073,1.073,0,0,0,1.073-1.073V20.241a1.074,1.074,0,0,1,1.073-1.073ZM21.177,8.438h2.146A1.073,1.073,0,0,0,24.4,7.365V5.219a1.074,1.074,0,0,1,1.073-1.073H38.345a1.074,1.074,0,0,1,1.073,1.073V7.365a1.073,1.073,0,0,0,1.073,1.073h2.146v3.219H40.491a1.073,1.073,0,0,0-1.073,1.073v3.219a1.074,1.074,0,0,1-1.073,1.073H25.469A1.074,1.074,0,0,1,24.4,15.949V12.73a1.073,1.073,0,0,0-1.073-1.073H21.177Z" transform="translate(0.949 0)" fill="#3b3659"/>
          <path id="Path_101669" data-name="Path 101669" d="M6.885,36.925a2.132,2.132,0,0,0,1.881.35l10.044-2.87a2.154,2.154,0,0,0,0-4.126L8.767,27.409a2.157,2.157,0,0,0-2.736,2.063v5.739a2.13,2.13,0,0,0,.854,1.714Zm1.292-7.453,10.043,2.87L8.177,35.211V29.472Z" transform="translate(0 1.849)" fill="#8450ff"/>
          <path id="Path_101670" data-name="Path 101670" d="M23.169,40.075a2.125,2.125,0,0,0-2.38-1.008L10.657,41.6a2.144,2.144,0,0,0-1.338,3.154l2.869,4.971a2.146,2.146,0,0,0,3.4.419l7.263-7.507A2.129,2.129,0,0,0,23.169,40.075Zm-9.122,8.581-2.869-4.971L21.31,41.149Z" transform="translate(0.219 2.702)" fill="#8450ff"/>
          <path id="Path_101671" data-name="Path 101671" d="M10.656,23.2l10.133,2.537a2.155,2.155,0,0,0,2.063-3.574l-7.263-7.507a2.147,2.147,0,0,0-3.4.419L9.319,20.044A2.159,2.159,0,0,0,10.656,23.2Zm3.391-7.052,7.28,7.51-10.149-2.54,2.869-4.97Z" transform="translate(0.219 0.876)" fill="#8450ff"/>
        </g>
        <g id="social-wellness" transform="translate(202.134 328.696)">
          <path id="Path_101672" data-name="Path 101672" d="M222.407,20.275a5.971,5.971,0,1,0-5.971,5.971A5.978,5.978,0,0,0,222.407,20.275Zm-5.971,1.99a1.99,1.99,0,1,1,1.991-1.99A1.993,1.993,0,0,1,216.435,22.266Z" transform="translate(-182.536)" fill="#8450ff" stroke="#d6d1ed" stroke-width="1"/>
          <path id="Path_101673" data-name="Path 101673" d="M429.873,379.611a5.971,5.971,0,1,0,2.186,8.157A5.978,5.978,0,0,0,429.873,379.611Zm-1.262,6.167a1.991,1.991,0,1,1-.729-2.719A1.993,1.993,0,0,1,428.611,385.778Z" transform="translate(-365.062 -316.138)" fill="#8450ff" stroke="#d6d1ed" stroke-width="1"/>
          <path id="Path_101674" data-name="Path 101674" d="M297.347,238.926l-.6-2.276-4.991,2.27-5.957,2.711.268,1.519a14.024,14.024,0,0,1,.169,3.532l-5.728-3.307-5.971,10.343,5.728,3.307a14.017,14.017,0,0,1-3.144,1.62l-1.45.527,1.161,11.972,2.274-.615a25.84,25.84,0,0,0,18.246-31.6Zm-6.038,17.583a21.716,21.716,0,0,1-10.986,9.435l-.4-4.155a17.979,17.979,0,0,0,5.211-3.675l1.8-1.833-6.961-4.019,1.99-3.448,6.961,4.019.688-2.476a17.98,17.98,0,0,0,.578-6.35l3.8-1.729A21.717,21.717,0,0,1,291.308,256.509Z" transform="translate(-238.102 -192.841)" fill="#3b3659" stroke="#d6d1ed" stroke-width="1"/>
          <path id="Path_101675" data-name="Path 101675" d="M2.988,379.612a5.971,5.971,0,1,0,8.157,2.186A5.934,5.934,0,0,0,2.988,379.612Zm3.981,6.9a1.99,1.99,0,1,1,.729-2.719A1.993,1.993,0,0,1,6.969,386.507Z" transform="translate(0 -316.139)" fill="#8450ff" stroke="#d6d1ed" stroke-width="1"/>
          <path id="Path_101676" data-name="Path 101676" d="M75.568,243.376l-5.728,3.307a14.025,14.025,0,0,1,.169-3.533l.269-1.519L59.329,236.65l-.6,2.276a25.84,25.84,0,0,0,18.246,31.6l2.274.615,1.161-11.972-1.45-.527a14.017,14.017,0,0,1-3.144-1.62l5.728-3.307Zm-4.627,14.738a17.985,17.985,0,0,0,5.211,3.675l-.4,4.155a21.861,21.861,0,0,1-13.664-23.667l3.8,1.729a17.978,17.978,0,0,0,.578,6.35l.688,2.476,6.961-4.019,1.991,3.448L69.14,256.28Z" transform="translate(-50.17 -192.841)" fill="#3b3659" stroke="#d6d1ed" stroke-width="1"/>
          <path id="Path_101677" data-name="Path 101677" d="M116.352,119.508a14.179,14.179,0,0,1,2.915-1.9v6.6h11.943v-6.628a13.8,13.8,0,0,1,3.034,1.927l1.182.992,9.788-6.991-1.669-1.662a25.839,25.839,0,0,0-36.492,0l-1.67,1.662,9.788,6.991Zm-4.718-6.426a21.861,21.861,0,0,1,27.328,0l-3.4,2.428a18.267,18.267,0,0,0-5.846-2.676l-2.488-.643v8.038h-3.981V112.19l-2.488.643a17.433,17.433,0,0,0-5.733,2.672Z" transform="translate(-91.399 -78.057)" fill="#3b3659" stroke="#d6d1ed" stroke-width="1"/>
        </g>
        <g id="g855" transform="translate(406.134 1024.665)">
          <g id="g857" transform="translate(0 -682.665)">
            <g id="g859" transform="translate(0 0)" clip-path="url(#clip-path-5)">
              <g id="g865" transform="translate(8.954 36.008)">
                <path id="path867" d="M-33.9,0a3.507,3.507,0,0,0-3.507,3.507A3.507,3.507,0,0,0-33.9,7.014h.5A16.032,16.032,0,0,0-17.369,23.046,16.032,16.032,0,0,0-1.337,7.014h.5A3.507,3.507,0,0,0,2.671,3.507,3.507,3.507,0,0,0-.836,0" transform="translate(37.409)" fill="none" stroke="#3b3659" stroke-linecap="round" stroke-linejoin="round" stroke-width="2.5"/>
              </g>
              <g id="g869" transform="translate(10.958 16.131)">
                <path id="path871" d="M-96.856,0a16.038,16.038,0,0,0-10.02,14.867v5.01" transform="translate(106.876)" fill="none" stroke="#3b3659" stroke-linecap="round" stroke-linejoin="round" stroke-width="2.5"/>
              </g>
              <g id="g873" transform="translate(47.03 34.004)">
                <path id="path875" d="M0-19.372v-2" transform="translate(0 21.376)" fill="none" stroke="#3b3659" stroke-linecap="round" stroke-linejoin="round" stroke-width="2.5"/>
              </g>
              <g id="g877" transform="translate(16.97 53.794)">
                <path id="path879" d="M0-89.6v-9.269" transform="translate(0 98.865)" fill="none" stroke="#3b3659" stroke-linecap="round" stroke-linejoin="round" stroke-width="2.5"/>
              </g>
              <g id="g881" transform="translate(41.018 53.794)">
                <path id="path883" d="M0-89.6v-9.269" transform="translate(0 98.865)" fill="none" stroke="#3b3659" stroke-linecap="round" stroke-linejoin="round" stroke-width="2.5"/>
              </g>
              <g id="g885" transform="translate(24.986 0.937)">
                <path id="path887" d="M-290.584-145.292a15.03,15.03,0,0,1-15.03,15.03,15.03,15.03,0,0,1-15.03-15.03,15.03,15.03,0,0,1,15.03-15.03A15.03,15.03,0,0,1-290.584-145.292Z" transform="translate(320.645 160.322)" fill="none" stroke="#8450ff" stroke-linecap="round" stroke-linejoin="round" stroke-width="2.5"/>
              </g>
              <g id="g889" transform="translate(32.501 0.938)">
                <path id="path891" d="M-72.646,0a7.515,7.515,0,0,0-7.515,7.515,7.515,7.515,0,0,0,7.515,7.515,7.515,7.515,0,0,1,7.515,7.515,7.515,7.515,0,0,1-7.515,7.515" transform="translate(80.161)" fill="none" stroke="#3b3659" stroke-linecap="round" stroke-linejoin="round" stroke-width="2.5"/>
              </g>
              <g id="g893" transform="translate(37.511 20.978)">
                <path id="path895" d="M-48.431-24.215a2.505,2.505,0,0,0-2.505-2.5,2.505,2.505,0,0,0-2.5,2.5,2.505,2.505,0,0,0,2.5,2.505A2.505,2.505,0,0,0-48.431-24.215Z" transform="translate(53.441 26.72)" fill="none" stroke="#8450ff" stroke-linecap="round" stroke-linejoin="round" stroke-width="2.5"/>
              </g>
              <g id="g897" transform="translate(37.511 6.156)">
                <path id="path899" d="M-14.527,0a2.506,2.506,0,0,0-1.5,2.3,2.505,2.505,0,0,0,2.5,2.505,2.505,2.505,0,0,0,2.5-2.505" transform="translate(16.029)" fill="none" stroke="#8450ff" stroke-linecap="round" stroke-linejoin="round" stroke-width="2.5"/>
              </g>
            </g>
          </g>
        </g>
        <g id="research" transform="translate(551.134 171.493)">
          <path id="Path_101678" data-name="Path 101678" d="M21.067,23a1.067,1.067,0,1,0,0,2.133A2.133,2.133,0,0,1,23.2,27.267a1.067,1.067,0,0,0,1.067,1.067C26.5,28.334,25.135,23,21.067,23Z" transform="translate(1.201 1.534)" fill="#8450ff"/>
          <path id="Path_101679" data-name="Path 101679" d="M35.067,29.133A2.133,2.133,0,0,1,37.2,31.267a1.067,1.067,0,0,0,1.067,1.067c2.232,0,.868-5.334-3.2-5.334a1.067,1.067,0,1,0,0,2.133Z" transform="translate(2.135 1.801)" fill="#8450ff"/>
          <path id="Path_101680" data-name="Path 101680" d="M22.067,8a1.067,1.067,0,0,0,0,2.133A2.133,2.133,0,0,1,24.2,12.267a1.067,1.067,0,0,0,1.067,1.067C27.5,13.334,26.135,8,22.067,8Z" transform="translate(1.268 0.534)" fill="#8450ff"/>
          <path id="Path_101681" data-name="Path 101681" d="M15.067,20.334a1.067,1.067,0,0,0,1.067-1.067,2.133,2.133,0,0,1,2.133-2.133,1.067,1.067,0,0,0,1.067-1.067c0-2.232-5.334-.868-5.334,3.2A1.067,1.067,0,0,0,15.067,20.334Z" transform="translate(0.801 1.001)" fill="#8450ff"/>
          <path id="Path_101682" data-name="Path 101682" d="M21.067,47a1.067,1.067,0,0,0,0,2.133A2.133,2.133,0,0,1,23.2,51.267a1.067,1.067,0,0,0,1.067,1.067C26.5,52.334,25.135,47,21.067,47Z" transform="translate(1.201 3.136)" fill="#8450ff"/>
          <path id="Path_101683" data-name="Path 101683" d="M19.811,39.948a2.111,2.111,0,0,1,1.656-.815,1.067,1.067,0,0,0,0-2.133,4.257,4.257,0,0,0-3,1.257A5.28,5.28,0,0,0,15.067,37a1.067,1.067,0,1,0,0,2.133,3.2,3.2,0,0,1,3.2,3.2,1.067,1.067,0,1,0,2.133,0,5.275,5.275,0,0,0-.589-2.385Z" transform="translate(0.801 2.468)" fill="#8450ff"/>
          <path id="Path_101684" data-name="Path 101684" d="M9.067,27a1.067,1.067,0,1,0,0,2.133,3.2,3.2,0,0,1,3.2,3.2,1.067,1.067,0,1,0,2.133,0A5.34,5.34,0,0,0,9.067,27Z" transform="translate(0.4 1.801)" fill="#8450ff"/>
          <path id="Path_101685" data-name="Path 101685" d="M35,22.267a1.067,1.067,0,1,0,2.133,0,2.133,2.133,0,0,1,2.133-2.133,1.067,1.067,0,0,0,1.067-1.067C40.334,16.835,35,18.2,35,22.267Z" transform="translate(2.202 1.201)" fill="#8450ff"/>
          <path id="Path_101686" data-name="Path 101686" d="M35.067,14.334a1.067,1.067,0,0,0,1.067-1.067,2.133,2.133,0,0,1,2.133-2.133,1.067,1.067,0,0,0,1.067-1.067c0-2.232-5.334-.868-5.334,3.2A1.067,1.067,0,0,0,35.067,14.334Z" transform="translate(2.135 0.6)" fill="#8450ff"/>
          <path id="Path_101687" data-name="Path 101687" d="M45.067,23.133A2.133,2.133,0,0,1,47.2,25.267a1.067,1.067,0,0,0,1.067,1.067c2.232,0,.868-5.334-3.2-5.334a1.067,1.067,0,1,0,0,2.133Z" transform="translate(2.802 1.401)" fill="#8450ff"/>
          <path id="Path_101688" data-name="Path 101688" d="M45.3,36.829A7.476,7.476,0,0,0,37.829,44.3a1.067,1.067,0,1,0,2.133,0A5.34,5.34,0,0,1,45.3,38.962a1.067,1.067,0,0,0,0-2.133Z" transform="translate(2.39 2.457)" fill="#8450ff"/>
          <path id="Path_101689" data-name="Path 101689" d="M57.994,52.352a11.641,11.641,0,0,0,.784-9.395,6.376,6.376,0,0,0,1.043-7.346A6.994,6.994,0,0,0,57.958,24.6,6.409,6.409,0,0,0,54.4,17.254a6.438,6.438,0,0,0-4.68-7.511A5.847,5.847,0,0,0,43.1,3.627a6.5,6.5,0,0,0-11.228-.736,6.5,6.5,0,0,0-11.227.736,5.857,5.857,0,0,0-6.631,6.08A6.535,6.535,0,0,0,9.333,17.25a6.426,6.426,0,0,0-3.56,7.3A7.483,7.483,0,0,0,2,30.807a6.954,6.954,0,0,0,1.92,4.8,6.421,6.421,0,0,0,2.119,8.248A7.029,7.029,0,0,0,11.6,53.214a5.867,5.867,0,0,0,7.5,5.8,7.087,7.087,0,0,0,12.764,1.677A7.085,7.085,0,0,0,37.874,64a4.829,4.829,0,0,0,4.4-2.813c2.5.678,4.657-.181,5.352-2.706a11.548,11.548,0,0,0,4.188-.762l5.343,5.343A3.191,3.191,0,0,0,59.42,64c1.605,0,2.318-.992,3.512-2.186a3.2,3.2,0,0,0,0-4.526Zm-19.908-5.6a9.6,9.6,0,1,1,9.6,9.6,9.6,9.6,0,0,1-9.6-9.6ZM25.873,61.869a4.926,4.926,0,0,1-4.907-4.451,1.067,1.067,0,0,0-.58-.863c-.945-.48-1.148.557-2.914.557a3.7,3.7,0,0,1-3.606-4.638,1.045,1.045,0,0,0-1.2-1.314A4.9,4.9,0,0,1,8.34,43.935a1.067,1.067,0,0,0-.485-1.488,4.281,4.281,0,0,1-1.707-6.39,1.067,1.067,0,0,0-.192-1.464,4.837,4.837,0,0,1-1.822-3.787c0-2.09,1.756-4.267,3.194-4.579a1.067,1.067,0,0,0,.721-.557c.4-.777-.309-1.012-.309-2.6a4.276,4.276,0,0,1,3.184-4.131,1.067,1.067,0,0,0,.686-.563c.365-.747-.275-.953-.275-2.442A4.327,4.327,0,0,1,15.26,11.68a1.067,1.067,0,0,0,.831-.427c.453-.6.043-.944.043-1.856a3.734,3.734,0,0,1,4.833-3.531,1.067,1.067,0,0,0,1.348-.7A4.344,4.344,0,0,1,30.8,6.421V56.984a4.913,4.913,0,0,1-4.928,4.886ZM44.742,59.1a3.575,3.575,0,0,1-2.713-.266,1.067,1.067,0,0,0-1.628.906c0,1.493-1.674,2.133-2.528,2.133a4.919,4.919,0,0,1-4.939-4.886V6.421A4.344,4.344,0,0,1,41.421,5.17a1.067,1.067,0,0,0,1.341.7,3.7,3.7,0,0,1,4.707,4.465,1.067,1.067,0,0,0,.948,1.342A4.285,4.285,0,0,1,52.1,17.494a1.067,1.067,0,0,0,.708,1.452,4.274,4.274,0,0,1,2.843,5.815,1.067,1.067,0,0,0,.628,1.433,4.866,4.866,0,0,1,1.493,8.4,1.067,1.067,0,0,0-.192,1.464,4.17,4.17,0,0,1,.17,4.712,11.725,11.725,0,1,0-12.3,17.5,1.434,1.434,0,0,1-.716.828Zm16.681,1.213-1.249,1.249a1.067,1.067,0,0,1-1.509,0l-4.83-4.83a11.8,11.8,0,0,0,2.945-2.572L61.424,58.8a1.067,1.067,0,0,1,0,1.508Z" transform="translate(0 0)" fill="#3b3659"/>
        </g>
      </g>
    </g>
    <text id="Psychological" transform="translate(1603.391 2869.68)" fill="#3b3659" font-size="18" font-family="'PingAR\+LT-Medium', 'Ping AR \+ LT'" font-weight="500"><tspan x="-59" y="0">Psychological</tspan></text>
    <text id="Emotional" transform="translate(1422.215 3038.371)" fill="#3b3659" font-size="18" font-family="'PingAR\+LT-Medium', 'Ping AR \+ LT'" font-weight="500"><tspan x="-45" y="0">Emotional</tspan></text>
    <text id="Social" transform="translate(1218.135 3038.25)" fill="#3b3659" font-size="18" font-family="'PingAR\+LT-Medium', 'Ping AR \+ LT'" font-weight="500"><tspan x="-25" y="0">Social</tspan></text>
    <text id="Physical" transform="translate(1048.94 2866.193)" fill="#3b3659" font-size="18" font-family="'PingAR\+LT-Medium', 'Ping AR \+ LT'" font-weight="500"><tspan x="-34" y="0">Physical</tspan></text>
    <text id="Wellbeing_programs" data-name="Wellbeing programs" transform="translate(1257.934 2622.897)" fill="#fff" font-size="24" font-family="'PingAR\+LT-Medium', 'Ping AR \+ LT'" font-weight="500"><tspan x="-57" y="24">Wellbeing </tspan><tspan x="-58" y="56">programs</tspan></text>
  </g>
</svg>
